<?xml version="1.0" encoding="UTF-8" standalone="no"?>
<svg
   xmlns:dc="http://purl.org/dc/elements/1.1/"
   xmlns:cc="http://creativecommons.org/ns#"
   xmlns:rdf="http://www.w3.org/1999/02/22-rdf-syntax-ns#"
   xmlns:svg="http://www.w3.org/2000/svg"
   xmlns="http://www.w3.org/2000/svg"
   id="svg462"
   version="1.1"
   viewBox="0 0 5671.38 422.51">
  <metadata
     id="metadata466">
    <rdf:RDF>
      <cc:Work
         rdf:about="">
        <dc:format>image/svg+xml</dc:format>
        <dc:type
           rdf:resource="http://purl.org/dc/dcmitype/StillImage" />
        <dc:title>werwrwerRecurso 2</dc:title>
      </cc:Work>
    </rdf:RDF>
  </metadata>
  <defs
     id="defs4">
    <style
       id="style2">.cls-1{fill:#fff;}</style>
  </defs>
  <title
     id="title6">werwrwerRecurso 2</title>
  <g
     transform="rotate(-180,2835.6723,211.25518)"
     style="fill:#ffffff;fill-opacity:1"
     data-name="Capa 2"
     id="Capa_2">
    <g
       style="fill:#ffffff;fill-opacity:1"
       data-name="Capa 1"
       id="Capa_1-2">
      <path
         style="fill:#ffffff;fill-opacity:1"
         id="path8"
         d="M 5669.91,421.9 H 13.37 c -4.25,0 -10.16,1.66 -12.29,-0.47 -2.13,-2.13 -0.47,-8 -0.47,-12.29 V 200.8 c 15.57,2.28 32.81,-9.44 47,6.4 4.14,4.63 11.83,1.79 17.71,3.42 a 9.6,9.6 0 0 1 2.68,0.64 c 0.88,-1.55 0.77,-0.95 -0.74,-0.72 -2.77,0.42 -5.56,-0.71 -8.05,-2.14 a 5.47,5.47 0 0 1 -3,-5.89 c 0.63,-3.62 3.37,-6.9 6.53,-6.46 18.34,2.52 35.66,-8.46 54.08,-3.74 a 40.74,40.74 0 0 0 15.46,0.76 c 4,-0.53 12.07,3.86 6.62,-7.22 -2.53,-5.15 10.08,-15.27 16.89,-12.95 7.25,2.47 16.76,1.06 20.95,11 2.83,6.73 7.11,3.67 10.52,-0.85 15.07,-19.92 28.18,-24.36 51.7,-17.89 4.86,1.34 7.88,5 11.21,8.28 5.16,5.09 10.81,9.16 18.42,9.41 6.25,0.21 10.88,-0.22 10.08,-9.13 -0.86,-9.51 6.36,-15.23 14.6,-15.73 7.86,-0.47 14.52,4.08 13.74,14 -0.15,1.9 0,4.09 2.35,4.3 2.35,0.21 3,-1.83 3.42,-3.72 0.42,-1.89 0.39,-3.8 1.17,-5.52 2.14,-4.74 4.21,-10.42 10.48,-9.85 6.79,0.62 7.12,6.46 7,11.88 a 16.63,16.63 0 0 0 1.31,6.88 c 0.36,0.88 1.54,1.79 2.17,1.49 0.63,-0.3 -0.42,-1.79 -0.28,-2.39 3.48,-14.56 8.71,-18.81 23,-17 9,1.14 17.59,2.66 26.29,-1.38 3.64,-1.69 10,-0.32 10,2.47 0.06,12.78 16,14.29 17.09,25.77 0.46,4.75 2.75,8.1 7.85,8.45 a 13.78,13.78 0 0 0 12.45,-5.23 c 15.43,-19.11 17.12,-19.67 34.92,-3.72 7,6.23 11.13,0.2 16.51,-0.83 6.47,-1.25 11.13,-5 13.23,-11.29 1.23,-3.68 -2.28,-4.7 -4.54,-6.1 -4,-2.47 -8.8,-3.49 -12.15,-7.08 a 7.27,7.27 0 0 1 -1,-3.82 c 10.67,-5.51 20.55,-15.4 33.92,-8 4.26,2.36 3.08,0.33 4.33,-2.2 5.13,-10.36 11.85,-10.53 18.73,-1.13 4.17,5.69 4.73,12.71 4.71,18.85 0,9 -8.35,6.6 -14.12,6.95 -1.81,0.11 -4.58,-1.3 -5.18,0.23 -0.6,1.53 2.44,2 3.93,2.73 3.61,1.77 4.4,4.9 3.81,8.3 -1.81,10.58 4.95,10.11 12,9.78 9,-0.42 18.52,-5.78 26.79,2.62 1.81,1.83 3.34,1.47 2.61,-1.68 -3,-12.8 4.92,-13 14,-12.15 5.32,0.5 10.69,1.49 16,-0.21 -5.06,-1.4 -10.23,-0.71 -15.32,-0.5 -10.6,0.44 -20.38,-3.06 -30.31,-5.77 -3.54,-1 -7.87,-2.09 -7.28,-7.09 0.53,-4.53 4.58,-5.68 8.31,-6.38 13.58,-2.57 27.18,-0.33 40.76,0.27 3.7,0.16 7.57,1.86 10.57,-1.54 1,-1.16 0,-2.59 -0.92,-3.71 -3,-3.69 -6.06,-5 -10.91,-2.51 -5.65,2.85 -12,2.19 -18,0.53 -9.55,-2.66 -7.61,-6.49 -0.74,-10.51 1.28,-0.48 2.77,-1.29 3.92,-0.88 5.69,2 7.33,-0.25 6.45,-5.61 10.5,-9.84 23.88,-6.25 35.9,-6.49 8.42,-0.17 14.59,11.81 10.49,20.8 -3.63,8 0,9.76 5.31,12.29 5.88,8.16 6.25,-1.24 9,-2.88 1.82,-14.77 10.6,-14.2 23.14,-13.87 12.54,0.33 25.44,-4.28 38.56,-2.81 1.33,0.15 2.59,-0.93 3.56,-2 12.7,-14.28 23.51,-17.26 39.7,-10.03 9.63,4.3 17.2,0.44 25.19,-4.24 10.79,-6.33 13.94,-4.68 15,7.51 0.3,3.39 0.48,6.63 2.74,9.26 3.83,4.47 1.67,6.87 -2.13,10.26 -7.63,6.8 -10.34,15.67 -6.11,25.42 1.9,4.38 3.33,7.77 -1.77,10.71 -6.66,3.83 -1.78,6.93 0,11.22 3.14,7.42 5.86,1.07 8.34,0.39 3.64,-1 7.34,-1.73 11,-2.75 2.56,-0.72 3.85,-1.58 1.78,-4.82 -8.72,-13.62 -1.84,-27.58 15.53,-29.6 a 137.85,137.85 0 0 1 45,1.95 c 2,0.42 3.75,1.65 5.89,1.21 -1.74,-0.7 -3.62,-0.85 -5.4,-1.37 -12.37,-3.64 -25.29,-1.64 -37.89,-3.81 C 810,158.75 801.35,147 807.12,129 c 2.72,-8.48 10.13,-11.25 18.19,-10 7.71,1.18 12.56,7.92 18.55,12.34 2.23,1.65 1.7,4.1 -0.42,6 -10.21,9.14 0.09,10.07 5,10.32 9.07,0.46 19,1.08 22.31,-11.44 1.65,-6.27 7.39,-6.85 12.81,-5.35 5.42,1.5 9.57,4.26 7.84,11.14 -0.86,3.41 -3.43,7.91 2.32,9.28 5.09,1.22 10.82,1.49 14,-3.83 3.18,-5.32 6.78,-9.83 13.24,-8.68 25.75,4.57 51.74,-2.68 77.45,1.94 3.26,0.59 6.53,0.93 9.62,2.22 9.6,4 18.74,8.5 28.41,-1.17 3.75,-3.75 10.7,-2.85 16.42,-2.83 10.82,0.05 21.72,1.12 32.29,-2.33 1.8,-0.59 4.32,-1.31 5.51,-0.19 10.37,9.81 23.51,3.4 34.92,6.32 21.36,5.48 19.43,3 29.9,-17.31 1.84,-3.56 1.07,-11.06 5.39,-10.23 7.58,1.47 14.14,-4.1 21.33,-1.34 1.81,0.7 4.24,2.34 3.19,3.81 -5.24,7.38 3,12.21 3,18.18 -0.05,14.59 9,10.5 14.57,6.27 21.22,-16 42,-12.08 65.2,-4.11 a 83,83 0 0 0 45.44,2.72 c 17.63,-4 36.46,0.38 54.71,2.4 17.53,1.94 34.9,2.13 50.34,-8.48 8.31,-5.7 17.5,-1.78 26.25,-2.56 8.75,-0.78 17.26,-1.65 22.92,8.79 3.17,5.85 10.81,3 17,1.63 29.22,-6.36 58.93,-10.08 87.5,1.06 18.16,7.08 36.44,2.83 54.5,5.34 5.14,0.71 10.59,0.35 15.13,3.1 7.07,4.29 13.92,2.13 21.48,1.75 22.45,-1.12 45,0.26 66.07,9.87 0,2.3 0.74,3.48 3.09,1.62 27.31,-7.75 53.59,1.42 80,5.45 19.24,2.94 38.43,-0.36 57.62,2.17 7.49,1 14.41,-3.58 16.27,-12.66 1.39,-6.79 5.5,-10.81 12.95,-10.22 7.73,0.62 6.44,6.5 6.79,11.55 0.58,8.34 4.51,12.26 13.55,12.48 14.57,0.36 29.17,0 43.72,1 4,0.27 7.47,-0.38 10.2,-3.52 3.55,-4.06 7.71,-5.12 12.61,-2.55 a 23.16,23.16 0 0 1 3.26,2.26 c 10.89,4.8 21.12,7.72 32,-1.56 6.22,-5.33 15.66,-4.93 23.48,-7.74 a 15.92,15.92 0 0 1 4,0.55 c 5.17,1.33 8.77,5.15 13,8.08 6.66,4.66 14.09,8.42 22.28,5.73 12.58,-4.13 25,-2.34 37.34,-0.12 8.64,1.55 16.65,-2 25,-1.54 a 35.76,35.76 0 0 1 6.18,0.59 c 22,1.54 44.07,-1.27 66,1.91 1.84,0.27 4.39,0.34 5.46,-0.86 9.21,-10.19 19.7,-4.21 29.77,-2.58 39.57,6.43 79.39,7 119.28,4.85 6.81,-0.36 14.2,3.25 20.49,-2.1 1.28,-1.09 3.7,-1.9 2.71,-4.1 -0.53,-1.17 -2.49,-0.52 -3.81,-0.49 a 37.8,37.8 0 0 1 -9.83,-0.84 c -5.16,-1.26 -13.3,0.07 -13.19,-7.48 a 16.5,16.5 0 0 1 13.31,-16.3 c 7.41,-1.59 15,-1.3 21.53,3.76 a 11.77,11.77 0 0 1 2,3.54 c 2.51,7.44 6.9,8.77 12.58,3.34 a 55.58,55.58 0 0 1 23,-13.51 c 4.77,-1.41 5.69,-5 7.12,-9.34 3.42,-10.37 12.35,-12.09 21.6,-5.43 7.37,5.31 16,4.34 24.2,2.92 12,-2.09 23.44,-5.19 36.12,-1.91 7.3,1.89 16.4,0.2 23.66,-2.6 25.64,-9.88 52.08,-7.29 78.44,-6.8 10.38,0.19 20.7,-0.94 31,-1.62 5.35,-0.35 11.67,0.41 11.91,-9.66 0.18,-7.37 8.36,-5.44 11.76,-1.44 11.66,13.7 25.77,12.81 41.41,9.75 10.8,-2.11 22.6,1.21 32.26,-7 2,-1.72 6.32,-1 7.78,1.4 6.22,10.3 16.31,7 25.35,8.25 25.31,3.62 50.93,1.48 76.24,4.68 8.61,1.09 15.34,-1.14 19.83,-9.88 5.81,-11.3 7.61,-11.15 15.58,-2 9.72,11.2 9.73,11.21 18.5,-0.22 1.16,-1.51 2.91,-4.13 4.05,-3.5 8.52,4.72 15,-4 22.84,-3.12 5.06,0.59 9.1,2.19 11.21,7.21 1.09,2.6 2.17,5.27 4.55,7.05 8.91,6.66 51.59,-1.94 55.63,-12.16 3,-7.61 8.28,-8.43 14.42,-8.46 6.14,-0.03 12.2,1.24 18.34,1.49 4.1,0.17 10.21,-1.34 11.33,3.29 1.31,5.43 -4.42,7.4 -9,8.87 -2.24,0.34 -4.42,-0.5 -6.65,-0.43 -1.76,0.05 -3.37,1.27 -5.21,0.68 2,2 3.72,-0.79 5.71,-0.42 a 28.3,28.3 0 0 0 5.35,0.44 c 25.08,4.12 50.53,-1.86 75.67,2.94 6,1.15 16.53,4.31 11.79,-10.64 -1.49,-4.71 4.28,-13.3 12.82,-13.89 9,-0.62 19,-1.22 23,9 1.36,3.47 10.07,10.38 -1.17,13.9 -1.88,0.59 -3.68,2.87 -0.09,2.51 6.45,-0.64 13.9,1.26 17.18,-8.42 4.51,-13.32 17.86,-16.77 29,-7.94 8.27,6.57 16.3,8.63 26.05,3.93 5.21,-2.5 11.58,-3.53 16.59,-1.35 15.76,6.85 33.29,6.22 49,12.52 3.36,1.34 6,1.68 9.31,0.25 13.56,-5.84 30.2,-1.58 42.17,-13.55 3.25,-3.25 9.13,-0.67 13.45,1.31 5.3,2.43 4.5,6.17 2.05,10.48 -2.75,4.84 0.85,5.8 4.45,5.93 5.19,0.18 10.26,-0.3 15.14,-2.66 a 35.2,35.2 0 0 1 28.73,-1.45 c 2.54,2.47 1.45,4.48 -0.74,6.29 -0.57,0.69 -2.07,0.62 -2.14,0.77 -0.58,1.29 -0.37,1.23 0.74,0.13 1.33,-1.32 -0.44,0.45 1.19,-0.64 7.25,1.66 2.76,-4.22 4.11,-6.33 2.49,-6.4 0.68,-11.86 -3.05,-17.27 -5.39,-7.8 -4.26,-15.13 5.05,-17.91 6.69,-2 7,-8.61 11.61,-11.46 5.44,-3.36 11.57,-8.85 17.12,-0.91 4.51,6.47 3.69,12.47 -5,15.48 -2.27,0.79 -7,3.15 -2.95,5.33 11.52,6.16 13.35,19.12 21.32,27.55 2.83,3 5.24,7.6 10.15,6.49 5.46,-1.25 1.9,-6.45 3,-9.73 5.08,-15.21 20.78,-20.17 38.37,-9.36 10.1,6.2 22.26,8 31.2,16.12 1.26,1.15 5.73,4.94 4.37,-1.63 -1.41,-6.8 3.38,-6.72 7.37,-7.51 5.41,-1.08 5.36,-0.94 5.41,-5.31 0,-3.95 2.93,-5.88 6,-7.06 8.35,-3.18 18.16,-4.42 24.19,2 15,15.83 33.44,10.6 51.09,11 a 75.47,75.47 0 0 0 8.43,-0.75 c 7,-0.63 21.58,6.5 12.49,-11.67 a 2.29,2.29 0 0 1 3.49,-2.44 c -2.35,-2.23 -2.88,0.66 -3.93,1.54 -6.37,5.37 -8,1.91 -8,-4.28 0,-1.86 1.54,-3.47 1.16,-5.45 -1.25,-6.57 -2.78,-14.79 4.58,-17.19 7.91,-2.58 17.76,-1.66 23.6,5.5 6.25,7.67 13.5,10.62 22.94,11.76 9.09,1.09 17,5.54 20.51,15 1.07,2.87 2.77,5 6,5.26 3.89,0.37 4.57,-2.59 5.11,-5.42 a 12,12 0 0 1 5.24,-8.08 c 4.65,-3.06 13.27,-4.21 2.81,-11.86 -4.48,-3.27 -0.53,-8.78 4.51,-8.2 10.18,1.17 19.41,0.75 28.19,-5.43 a 6.93,6.93 0 0 1 10,2.51 22.68,22.68 0 0 1 0.88,17.89 c -1.59,4.63 -5.55,5.92 -10.42,4.63 -2.29,-0.61 -4.67,-1.53 -7.16,-0.87 a 50.2,50.2 0 0 1 8.37,1.28 c 3.41,1 6.44,-1.14 9.68,-1.34 9.46,-0.58 18.94,-1 26.94,5.57 a 4.64,4.64 0 0 1 -0.31,3.85 c -16,5.13 -32.42,3.81 -48.8,3.41 -1.73,0 -3.56,-0.95 -5.22,0.34 a 6.32,6.32 0 0 0 4.79,1.53 c 24.28,-1.28 48.07,8.3 72.66,2.65 12.1,-2.78 26.49,-1.44 36,3.38 13.53,6.86 26.1,7 40,8.12 11.49,0.9 22.89,5.24 34.82,4.57 7.15,-0.4 15.23,0.63 9.59,-11.57 -2.58,-5.59 2.32,-8.44 8.15,-7.59 20,2.91 38.13,-10.05 58.16,-6.57 17.28,-18 39.83,-9 60.06,-11.42 10.56,-1.26 19.92,1.62 26.89,11.78 5.54,8.07 16.68,9.43 24.91,14.6 4.49,2.82 5.35,-4.21 6.84,-6.58 9.49,-15 16.49,-18.45 34,-13.5 8.18,2.31 16.13,5.2 24.69,5.91 5.63,0.46 10,3.42 11.79,8.81 2.46,7.39 7.67,7.15 13.42,5.78 1.58,-0.69 0.59,1.84 0.8,0 0.17,-1.47 -1.53,-0.68 -2.13,-1.45 -6.75,-5.73 -3.78,-8.82 3,-10 7.93,-1.43 16.1,-1.28 24,-0.61 21.2,1.8 42.14,-2.35 63.13,-3.3 a 84.1,84.1 0 0 0 41.86,-13.86 c 3.32,-2.24 6.52,-5 10.11,-2.9 7.25,4.32 14.68,4.8 22.88,4.51 6.69,-0.24 8.57,6.29 10.6,11.68 4.39,11.67 7.37,12.51 16.36,4.8 28.66,-24.57 46.92,-26 78.49,-6 9.44,6 19.69,10.39 26.56,20.42 3.11,4.54 10.07,12 17.16,0.64 2.77,-4.45 10.46,-6.73 16.61,-6.83 16.85,-0.28 32.07,-7 47.92,-11.21 0.67,-0.18 1.12,-0.33 1.36,-0.39 13.89,-3.26 27.95,0.37 42.41,-7.78 16.68,-9.39 32.86,2.21 46.18,14.19 8.54,7.68 18,13.42 30,11.93 5.77,-0.71 12.49,-2.16 6.21,-10.33 -2.47,-3.21 7.06,-9.14 -2.92,-10.7 -2,-0.31 0.41,-4.22 2.67,-4.74 20.12,-4.59 40.32,-1.75 60.47,-0.19 3.61,0.28 5.2,2.71 2.5,7.09 -8,12.92 -6.5,16.46 7.27,20.52 3.24,1 7,1.77 6.6,6 -0.48,5.12 -4.53,6.71 -9.11,7 -1.4,0.1 -2.82,-0.17 -4.24,-0.19 0.53,0.56 1.19,0.11 1.78,0.23 9.6,1.95 16.39,0.24 21,-10.24 8,-18.15 10.39,-18.93 30.35,-16.88 11.39,1.17 23.67,-5.31 34.16,3.85 a 4.88,4.88 0 0 0 2.46,0.87 c 0.17,-2.18 -2,-2.31 -3.18,-3 -8.67,-5 -7.54,-8.54 1.51,-11.06 3.25,-0.9 5.83,-3 8.68,-4.67 4.53,-2.62 9.8,-5.56 14.57,-2.57 5,3.11 4.92,8.38 2.2,13.81 -2.72,5.43 5.5,5 6,9.68 0.17,1.65 3.14,-1.85 4.6,-3.25 16,-15.29 25.88,-12.85 33.1,8.42 0.19,0.57 -0.69,2 0.32,1.73 1.28,-0.35 2.27,-1.65 3.52,-2.3 16.91,-8.84 17.71,-8.71 31.35,5.88 1.71,1.83 3.44,3.26 6.08,2.54 1.92,-0.53 4.08,-2 3.36,-3.79 -2.1,-5.1 -4.35,-10.23 2.94,-12.45 7.67,-2.34 16.63,-5 23.06,0.89 8.35,7.68 17.38,8.83 27.41,7 8.23,-1.51 16,-2.69 12.28,-15.59 -3,-10.27 15.73,-22.48 26.78,-16.89 14.5,7.33 31.26,-1.21 45.29,8.5 3.73,2.58 5.67,-3.62 6,-7.32 0.77,-8.55 5.32,-9 11.67,-5.82 9.14,4.64 19.3,8.46 19.39,21.36 a 11.71,11.71 0 0 1 -1.87,6.38 c 3.6,-0.67 1.29,-5 3.84,-6.3 4.66,-2.75 10,-2.74 15.11,-3.31 18,-2 34.62,-7.28 49.66,-17.46 4.21,-2.85 8.19,-2.8 10.18,2.69 1.84,5.09 5.43,8.72 9,12.55 4.8,5.19 9,7 15.63,1.87 7.1,-5.48 15.15,-6.42 19.7,3.84 3,6.83 4.71,1.41 6.65,-0.41 5.91,-5.55 10.89,-5 14.71,2.19 a 19.37,19.37 0 0 0 10.28,9.31 c 6.88,2.63 11.77,0.91 13.87,-7 3.32,-12.51 9.73,-15.53 21.16,-10.53 4,1.75 8.91,9.32 9.34,-3.3 0.2,-5.66 23,-5.75 24.62,0.6 1.9,7.48 6.35,6.83 11.25,7.7 4.66,0.83 8.85,2.13 12.34,6 7.45,8.32 16.2,6.47 20.45,-4.23 3.65,-9.19 11.45,-12.07 19.89,-13.37 5.7,-0.88 11.71,-0.13 12.56,7.81 a 10,10 0 0 1 -1.11,3.82 c -2.68,4.13 -8.32,3.59 -11.35,7.19 5.21,-0.36 10.17,2.16 15.28,1.7 9.23,-0.83 18,-1.35 23.77,8.09 2.05,3.36 3.76,2.28 3.69,-1.3 -0.09,-4.57 1.65,-9.42 -2.31,-13.46 -2.66,-2.71 -3.66,-5.66 0.86,-7.81 13.64,-4.15 27.88,-4.53 41.82,-6.57 5.46,-0.8 13,-1.5 13.2,8.23 0,1.16 -5.5,3.14 -0.33,2.95 7.38,-0.27 12.61,-5.34 17.43,-10.9 12.24,-14.16 22.79,-15.82 38,-5.13 a 47.06,47.06 0 0 0 31.95,8.72 c 2.79,-0.21 6.09,-0.26 7.66,2.45 2,3.45 -0.81,6.17 -2.68,8.69 -6.51,8.81 -16.34,10.42 -26.25,11.89 -4.15,0.61 -8.57,-0.33 -12.45,1.92 -3.24,1.87 -3.14,5.95 -1.48,7.28 3.54,2.84 2.08,-2 3.06,-3.16 a 6.82,6.82 0 0 1 7.57,-2.22 c 9.09,2.46 18.39,4.23 27.12,8 4.86,2.07 7.2,5.33 7.17,10.86 -0.47,92.86 0.79,185.73 -0.72,278.59 0.02,0.25 -0.43,0.65 -0.67,1.06 z"
         class="cls-1" />
      <path
         style="fill:#ffffff;fill-opacity:1"
         id="path10"
         d="m 0.62,175.28 c 2.41,0.06 4.71,-4.7 7.36,-0.07 0.38,0.66 3.34,-0.45 3.35,1.08 0,1.28 -1.62,2.82 -2.87,3.82 -2.34,1.87 -5.23,0.44 -7.84,0.85 z"
         class="cls-1" />
      <path
         style="fill:#ffffff;fill-opacity:1"
         id="path12"
         d="m 1494,172.45 c -4.72,0 -9.43,0 -14.15,0 -2.84,0 -5.57,-0.51 -5.47,4.07 0,1.84 -3.11,2.44 -4.39,1.07 -3,-3.21 -5,-0.72 -8,-0.22 -4.78,0.79 -10.16,-1.72 -15.22,-3.09 -1.17,-0.32 -1.73,-2.08 -3.48,-1.85 -4.54,0.59 -9.23,-1 -13.71,1.09 -4.29,2 -6.6,-2.46 -9.88,-3.24 -4.44,-1.05 -9.27,-0.47 -13.92,-0.67 -1.34,-0.06 -2.95,0 -3.95,-0.64 -1.39,-1 -3.42,-2.83 -3.18,-3.85 0.36,-1.54 2.4,-3.76 3.78,-3.79 4.08,-0.1 8.29,-1.15 12.31,0.82 6.26,3.08 12.28,3.6 17.3,-2.42 1.12,-1.34 2.57,-1.38 2.79,0.17 0.83,6 4.75,6.75 9.83,7 4.77,0.27 7.78,-0.91 8.74,-5.81 5,2.1 8.11,-4 13,-2.93 a 5.63,5.63 0 0 0 5.21,-1 c 4.11,-3.43 3.15,1.06 2.85,2.39 -0.38,1.71 -4.18,2.6 -0.64,5.15 2,1.4 3.36,3.19 5.9,1.24 5,-3.82 11.67,-3.28 15.9,-1.42 4.23,1.86 7.84,1.87 11.82,2.22 1.84,0.16 3.86,-0.23 4,2.49 0.21,3.64 -2.39,3.21 -4.69,3.21 z"
         class="cls-1" />
      <path
         style="fill:#ffffff;fill-opacity:1"
         id="path14"
         d="m 3835.89,101.58 c 3.61,1.39 5.49,-2.43 8.5,-2.83 4.65,-1 12.13,0.79 8.5,-8.5 0.34,-2.37 -1.7,-3.4 -3,-4.3 -3.39,-2.27 -7.11,-4.06 -10.7,-6 4.44,-2 9.12,-0.58 13.68,-1 4.89,-0.42 10.45,1.73 13.89,-3.9 1.52,-2.48 2.64,-0.87 4,0.38 1.36,1.25 2.66,2.87 1.91,4.79 -0.47,1.2 -2.06,1.92 -2.79,3.08 -2,3.2 -6.79,-0.94 -8.1,3 -0.49,1.48 10.48,9.58 12.74,9.63 4.69,0.09 9.39,0 14.08,0 5.42,0.09 9.47,2.49 9.69,5.48 0.22,2.99 -3.13,4 -3.2,7.27 0,2.32 -3.93,1.33 -6.13,1.37 -6.57,0.11 -13.21,-0.51 -19.7,0.2 -6.18,0.68 -10.83,-4.84 -17.22,-3.24 -1.61,0.4 -3.17,-3 -6.32,-0.13 -2.9,2.68 -6.58,-1.12 -9.81,-2.46 z"
         class="cls-1" />
      <path
         style="fill:#ffffff;fill-opacity:1"
         id="path16"
         d="m 5162,107.29 c 7.43,-1.54 7.78,7.12 13.3,8.81 3.79,1.16 5.36,4.61 0.48,7.84 a 33.86,33.86 0 0 0 -7,7 c -2.55,3.1 -4.13,8.14 -7.25,9.28 -2.44,0.89 -6.43,-3.37 -10,-4.43 -3.2,-0.95 -6.39,-0.47 -6.45,4.44 0,1.55 -2.34,1.12 -3.65,1 -0.41,0 -1,-1.21 -1,-1.82 0.58,-7.7 0.61,-7.68 -5.39,-9.44 -1.25,-0.37 -2.44,-0.93 -3.66,-1.4 0.67,-0.67 1.22,-1.58 2,-2 7.29,-3.44 12.55,-9.34 17.72,-15.15 a 11.55,11.55 0 0 1 10.9,-4.13 z"
         class="cls-1" />
      <path
         style="fill:#ffffff;fill-opacity:1"
         id="path18"
         d="m 5511.17,101.58 h 5.67 c -0.28,4.39 4,2.87 6,4.17 6,4 6.37,3.72 2.06,9 -3,3.61 -4.52,6.18 2,7 1.47,0.17 1.64,2.33 1.21,3.58 -1.26,3.65 -10.13,6.45 -13.08,4.19 a 4.32,4.32 0 0 1 -1,-2.37 c -2.54,-11.16 -6.23,-13.47 -17.22,-9.5 -4.09,1.48 -6.41,0.69 -9.91,-1.46 -2.09,-1.28 -6.95,-5.34 -9.67,0.87 a 2.92,2.92 0 0 1 -4.65,1.07 c -1.81,-1.76 -1.28,-5.13 -3.78,-6.71 1.33,-1.33 3,-4 3.94,-3.77 5.86,1.36 10.26,-3.58 15.75,-3.17 7.04,-5.18 15.9,4.34 22.68,-2.9 z"
         class="cls-1" />
      <path
         style="fill:#ffffff;fill-opacity:1"
         id="path20"
         d="m 1046.6,215 c -2.76,0.22 -3.48,-2.06 -2.68,-3.54 1.27,-2.36 3.21,-5.42 5.43,-6 6.61,-1.72 11.41,-6.43 17.36,-9.12 1.76,-0.8 2.78,-0.56 2.37,2.19 -0.94,6.33 5.88,4.44 7.37,7.88 5.81,-6.33 9.16,-0.86 13.78,2.15 2.66,1.73 7.19,0.53 10.86,0.83 0.76,0.06 2,0.83 2.09,1.41 0.19,1.26 0.58,2.71 -0.87,3.82 -1.77,1.35 -2.85,3.44 -5.72,3.29 -5.14,-0.27 -11.17,1.63 -15.29,-0.44 -7.83,-3.94 -14.51,2.72 -21.8,0.53 -1.27,-0.38 -2.07,3.07 -4.4,2.67 -4.4,0.44 -6.36,-2.77 -8.5,-5.67 z"
         class="cls-1" />
      <path
         style="fill:#ffffff;fill-opacity:1"
         id="path22"
         d="m 1568.18,170.59 c -0.3,5 -7.72,9.55 -13,6.78 -3.53,-1.84 -4.83,-0.91 -8.07,0.1 -8.6,2.69 -16,-3.14 -23.7,-6.08 -0.43,-0.16 -0.56,-3.19 0,-3.53 2.57,-1.57 6.28,-4.44 8.05,-3.61 8.42,4 13.88,-5.92 21.78,-4 1.13,0.28 -1,-1.65 -1.33,-2.68 -0.81,-2.42 1.54,-3.21 2.63,-3.85 3.11,-1.82 1.52,1.75 2.39,2.43 2.87,2.24 6.25,3.91 7.38,7.78 6.01,-0.46 3.17,4.18 3.87,6.66 z"
         class="cls-1" />
      <path
         style="fill:#ffffff;fill-opacity:1"
         id="path24"
         d="m 1348.1,172.21 c -2.21,0.29 -5.08,-0.08 -5.61,0.86 -2.36,4.18 -6.87,1.15 -10,3.56 -2.21,1.7 -5.72,-2.64 -9.4,-1.45 -2.42,0.78 -4.69,0 -4.33,-3.38 0.22,-2.05 -0.58,-3.9 2.73,-5.26 5.64,-2.32 11.09,-4.24 16.71,-1.41 6.26,3.16 12.65,1.09 19,1.34 1.31,0.05 2.72,-3.59 4.39,-2.37 2.77,2 6,0.12 8.26,1.57 2.26,1.45 4.95,0.07 6.5,1.25 3.23,2.46 5.15,-5.25 7.49,-0.92 2.34,4.33 -2.31,7.37 -3.43,11.13 -0.68,2.3 -5.71,1.52 -6.15,0.81 -3.39,-5.52 -10.41,0.19 -13.67,-4.78 -4.59,4.07 -8.59,-0.56 -12.49,-0.95 z"
         class="cls-1" />
      <path
         style="fill:#ffffff;fill-opacity:1"
         id="path26"
         d="m 899.06,220.64 c -4.87,1 -10.43,-0.54 -15.74,-3.21 -0.61,-0.31 -0.91,-1.47 -1.11,-2.29 a 2.28,2.28 0 0 1 2,-2.95 27.8,27.8 0 0 1 4.19,-0.07 c 1.78,-0.06 4.72,0.55 4.77,-1.35 0.05,-1.9 -2.85,-1.37 -4.6,-1.49 -0.88,-0.06 -2.14,0 -2.54,-0.5 -1.33,-1.7 -1.8,-3.1 0.23,-5.29 a 8.44,8.44 0 0 1 8.76,-2.6 c 8.52,2 16.72,5.41 25.62,5.87 0.44,0 1.07,1.41 1.14,2.21 0.07,0.8 -0.28,2.29 -0.7,2.39 -4.19,1 -9.31,0.61 -7.87,7.61 0.23,1.12 -1.71,1.73 -3.21,1.69 -3.24,-0.08 -6.52,-0.02 -10.94,-0.02 z"
         class="cls-1" />
      <path
         style="fill:#ffffff;fill-opacity:1"
         id="path28"
         d="m 5583.76,186.62 c -5.63,0 -11.28,0.25 -16.88,-0.17 -1.45,-0.11 -3.59,-2.08 -3.95,-3.55 -0.77,-3.14 2.13,-1.6 3.49,-1.91 a 20.17,20.17 0 0 1 2.81,-0.05 c 1.32,-0.11 3.49,0.66 3.69,-1 0.35,-2.85 -2.87,-1.07 -3.66,-2 -3.71,-4.53 -8.66,-2 -13,-2.63 a 2.54,2.54 0 0 1 -2.57,-2.53 c -0.17,-1.6 0.49,-2.89 1.92,-3.11 5.72,-0.9 11.56,1.23 17.37,-2.49 2.19,-1.41 6.85,3 11,3.11 1.45,0.05 1.08,2.42 0.76,3.65 -1.82,6.92 -1.87,6.92 4.08,7 2.81,0 5.63,0 8.45,0 2.34,0 4.86,-0.33 4.62,3.25 -0.18,2.69 -2.18,2.44 -4,2.43 -4.74,-0.01 -9.44,0 -14.13,0 z"
         class="cls-1" />
      <path
         style="fill:#ffffff;fill-opacity:1"
         id="path30"
         d="m 193.37,211.47 c -0.14,7.79 -1.73,8.95 -9.3,7 -1.73,-0.45 -3.7,-1 -5.34,-0.58 -10.12,2.45 -17.75,-5.27 -27,-6.46 -1.29,-0.17 -3.1,-2.42 -3.23,-3.84 -0.13,-1.42 2.19,-0.94 3.52,-1.14 4.81,-0.72 10.24,2.14 14.45,-2.65 0.62,-0.71 3.1,-0.72 4,-0.07 5.8,4.12 12.34,2.8 18.59,2.61 4.38,-0.13 4.6,2 4.31,5.13 z"
         class="cls-1" />
      <path
         style="fill:#ffffff;fill-opacity:1"
         id="path32"
         d="m 4058.24,132.76 c -6.46,-5.68 -14.11,1.48 -21.89,0.14 -3.64,-0.62 -7.09,-0.14 -9.93,-3.6 -3.94,-4.8 -9.7,-1.36 -14.58,-2.12 -2.44,-0.38 -3.24,-1.43 -3,-3.53 0.17,-1.48 1,-2.52 2.8,-2.25 5.83,0.9 12.1,-2 17.55,2 1.77,1.31 3.28,1.26 4.85,-0.29 2.74,-2.69 5.61,-2.54 8.67,-0.45 a 31.42,31.42 0 0 0 3.57,1.59 c 3.92,2 6.88,-2.53 10.93,-1.38 3.46,1 5.67,4.4 9.59,4.27 1.39,0 4.23,-1.14 3.65,1.82 -0.28,1.46 -2.37,3.17 -4,3.62 -2.12,0.65 -4.61,0.18 -8.21,0.18 z"
         class="cls-1" />
      <path
         style="fill:#ffffff;fill-opacity:1"
         id="path34"
         d="m 956,226.31 c -6.86,0.38 -12.58,-2 -17.88,-5.23 -2.52,-1.52 -4,-4.65 0.23,-6 3.45,-1.07 5.76,-2.58 6.21,-6.19 0.33,-2.67 3,-3.26 3.87,-2.32 3.83,4.26 8.66,2.06 13,2.73 a 7.26,7.26 0 0 1 5.82,7.89 c -0.84,6.59 -4.2,9.21 -11.25,9.12 z"
         class="cls-1" />
      <path
         style="fill:#ffffff;fill-opacity:1"
         id="path36"
         d="m 597.32,229.14 c -4.38,0 -8.9,1.37 -10.69,-0.25 -5.66,-5.14 -13.72,0.06 -19,-5.31 -0.62,-0.63 -2.57,-0.24 -2.37,-1.93 0,-0.42 1.69,-1.16 2.25,-0.93 4.42,1.83 8.57,-7.23 13,-0.29 2.55,-4.06 7.27,-1.16 10,-2.82 8.58,-5.21 14.49,2.19 21.53,3.84 1.64,0.38 1.52,3.54 -0.34,4.52 -4.8,2.51 -9.9,4.16 -14.38,3.17 z"
         class="cls-1" />
      <path
         style="fill:#ffffff;fill-opacity:1"
         id="path38"
         d="m 2135.1,152.61 c 6.07,-1.3 12.69,2.62 18.5,-2.64 2.57,-2.33 4.18,3.09 7,2.61 7.94,-1.34 16.48,3.09 24.09,-2.54 0.68,-0.5 2,3 4.24,2.57 q 1.07,0.94 0.71,1.89 -0.36,0.95 -0.71,0.94 h -16.79 c -1.47,0 -1.44,0 -6.37,4.71 -2.31,2.19 -4,0.78 -5.8,-1 -1.52,-1.52 -4.24,-1.53 -4.57,0.27 -1,5.31 -1.9,10.37 -5.89,14.48 -0.46,0.48 3,1.94 2.56,4.22 h -5.67 c -1.14,-5.16 2.64,-11.22 -2.83,-15.59 1.44,-6.46 -2.63,-7.37 -7.52,-7.63 -0.33,-0.02 -0.62,-1.5 -0.95,-2.29 z"
         class="cls-1" />
      <path
         style="fill:#ffffff;fill-opacity:1"
         id="path40"
         d="m 669.11,186.62 c 5.57,-1.34 5.7,2 6.63,6.82 0.52,2.68 2.64,5.48 2.35,8.77 -0.12,1.32 0.7,3.19 -1,3.75 -4,1.34 -8.8,-0.71 -12.42,2.66 -1.72,-3 -6.06,-1.7 -7.91,-4.9 -0.83,-1.43 -1.06,-2.11 0.2,-3 2.73,-2 0.66,-5.14 1.85,-7.69 2.95,-6.35 2.73,-6.45 10.3,-6.41 z"
         class="cls-1" />
      <path
         style="fill:#ffffff;fill-opacity:1"
         id="path42"
         d="m 1602.15,167.21 c -2.12,3.27 -2.75,7.55 -6.21,10.08 -0.36,0.27 -1,0.85 -1,0.79 -5.56,-4.78 -13.6,-0.42 -19.09,-5.18 -0.68,-0.59 -2.47,-0.9 -1,-3 3.58,-5.16 10.46,-5.86 14,-10.93 2.88,3.2 7.71,0.83 10.64,3.7 1.18,1.2 3.13,2.14 2.66,4.54 z"
         class="cls-1" />
      <path
         style="fill:#ffffff;fill-opacity:1"
         id="path44"
         d="m 3101.69,138.43 c -3.74,0 -7.49,0.05 -11.23,0 -2.5,0 -4.84,-4.28 -7.63,-0.08 -0.44,0.66 -12.13,-7.24 -12.25,-8.47 -0.27,-2.75 3.05,-3.41 3.43,-2.66 3.07,6 7.43,-0.2 11.26,1.44 4.27,1.83 8.66,4.35 13.74,4.16 4.67,-0.18 9.36,0 14,-0.08 1.77,0 2.63,0.78 2.8,2.24 0.23,2 -0.34,3.57 -2.93,3.5 -3.7,-0.12 -7.45,-0.05 -11.19,-0.05 z"
         class="cls-1" />
      <path
         style="fill:#ffffff;fill-opacity:1"
         id="path46"
         d="m 709.28,158.29 c 0,5.9 -2.4,8.08 -8,8.58 -5,0.45 -8.42,-2.65 -12,-4.82 -4,-2.42 -2.43,-3.52 1.6,-4 2.13,-0.24 -4.33,-7.18 3.23,-5.5 3.35,0.74 5.84,-1.33 8.74,-2.57 3.44,-1.46 6.43,2.75 6.43,8.31 z"
         class="cls-1" />
      <path
         style="fill:#ffffff;fill-opacity:1"
         id="path48"
         d="m 3568.08,144.1 c -7,0 -14,0 -21,0 -2.38,0 -3.32,-1.1 -3.13,-3.31 0.13,-1.55 1,-2.68 2.63,-2.35 6.12,1.21 13,-2.87 18.59,2.59 0.53,0.51 2.68,0 3.66,-0.7 6,-4 12.59,-1.12 18.85,-1.72 1.21,-0.12 3.6,2.22 3.8,3.65 0.39,2.73 -2.31,1.75 -3.79,1.77 -6.53,0.13 -13.07,0.07 -19.61,0.07 z"
         class="cls-1" />
      <path
         style="fill:#ffffff;fill-opacity:1"
         id="path50"
         d="m 1339.59,206.46 c -5.19,2.36 -10.16,-3.24 -16.14,-2.91 -0.52,0 -1.65,-1.33 -1.54,-1.54 a 7.71,7.71 0 0 1 1.91,-2 c 1,-0.86 1.61,-2.11 3.41,-2.07 7.55,0.15 15.11,0.09 22.66,0 2.87,0 3.52,2.81 5.43,4 -1.57,1.5 -2.94,3.89 -4.76,4.31 -3.14,0.75 -6.56,0.21 -10.97,0.21 z"
         class="cls-1" />
      <path
         style="fill:#ffffff;fill-opacity:1"
         id="path52"
         d="m 1046.6,215 c 2.15,2.92 7.62,0.86 8.5,5.67 -0.45,1.78 1.15,2.37 2,3.39 1.38,1.69 1.45,4.38 -0.29,4.58 -3.66,0.42 -7.17,3.18 -9.86,2.88 a 40.68,40.68 0 0 1 -11.09,-3.41 c -1.83,-0.81 -4.14,-2.7 -3.36,-5.47 0.9,-3.2 3.84,-2.12 5.83,-1.88 6.61,0.76 6.59,0.91 8.27,-5.76 z"
         class="cls-1" />
      <path
         style="fill:#ffffff;fill-opacity:1"
         id="path54"
         d="m 5584.68,118.42 c 4.1,0.48 7,-0.72 9.17,2 1.37,1.72 3.22,1.64 4.75,0 1.78,-1.91 3.7,-3 5.63,-0.56 0.21,0.26 -1.87,2.8 -3.24,3.78 -5.95,4.27 -13.06,4.46 -19.56,3.12 -4.25,-0.87 -7.83,-4.88 -11.89,0.06 -0.57,-0.52 -1.5,-1 -1.62,-1.57 -0.27,-1.33 -0.15,-3.59 1.19,-3.53 5.97,0.28 10.8,-5.38 15.57,-3.3 z"
         class="cls-1" />
      <path
         style="fill:#ffffff;fill-opacity:1"
         id="path56"
         d="m 1668.73,175.28 c -3.71,0 -7.47,0.36 -11.11,-0.18 -1.48,-0.22 -3.33,-2.2 -3.76,-3.73 -0.26,-0.95 1.66,-3.48 2.9,-3.72 7.14,-1.36 14.43,-1.78 21.48,0.27 a 4.66,4.66 0 0 1 3.28,5.42 c -0.6,2.35 -2.66,1.94 -4.44,1.93 -2.78,0 -5.56,0.01 -8.35,0.01 z"
         class="cls-1" />
      <path
         style="fill:#ffffff;fill-opacity:1"
         id="path58"
         d="m 868.15,197.67 c 3.3,-2.22 7.32,2.94 12,1.06 2.42,-1 3.88,2.09 4.64,3.61 0.94,1.88 -2.22,1.81 -3.27,3.15 -2,2.57 -6,-0.31 -8.64,2.79 -1.58,1.83 -3.74,-2 -6.6,-2.13 -3.84,-0.12 -9.91,-1.48 -9.15,-6.39 0.57,-3.56 6.39,-1.09 11.02,-2.09 z"
         class="cls-1" />
      <path
         style="fill:#ffffff;fill-opacity:1"
         id="path60"
         d="m 1271.65,163.94 c 6,-0.95 10.87,4.66 17.15,3 1.09,-0.29 1.41,1.4 0.21,2.71 -3.75,4.07 -9.59,4.32 -13.73,7.77 -1.36,1.13 -2,-0.75 -1.89,-2.11 0.27,-3.81 -3.42,-2 -4.74,-3.44 -1.5,-1.59 -4.19,-2.61 -3.74,-5.44 0.73,-4.67 4.53,-1.51 6.74,-2.49 z"
         class="cls-1" />
      <path
         style="fill:#ffffff;fill-opacity:1"
         id="path62"
         d="m 5457.7,169.61 c -6.71,1.18 -13.74,-1.56 -20.62,-4.76 -0.88,-0.41 -1.27,-1.9 -1.88,-2.88 0.81,-0.29 1.93,-1.07 2.39,-0.79 8.05,5 17,1.65 25.39,2.89 2.93,0.43 8.81,-3.33 8.23,3.36 -0.4,4.5 -5.36,1.42 -8.18,2.13 -1.33,0.33 -2.79,0.05 -5.33,0.05 z"
         class="cls-1" />
      <path
         style="fill:#ffffff;fill-opacity:1"
         id="path64"
         d="m 3524.63,138.43 c 3.27,0 6.56,-0.13 9.82,0 2.19,0.12 5.75,-1.15 6.11,1.29 0.23,1.56 -2.59,4.43 -5.93,4.38 -8.42,-0.13 -16.84,0 -25.26,-0.08 -1.49,0 -2.31,-1 -2.35,-2.7 -0.04,-1.7 0.75,-2.82 2.18,-2.86 5.13,-0.12 10.28,-0.03 15.43,-0.03 z"
         class="cls-1" />
      <path
         style="fill:#ffffff;fill-opacity:1"
         id="path66"
         d="m 3408.68,149.77 c -1.89,0 -3.78,0 -5.67,0 -4.06,-0.11 -4.84,-1.92 -2.67,-5.25 0.58,-0.9 2.78,-1.6 0.65,-3 -1.28,-0.82 -4.1,0.5 -4,-2 0.07,-1.58 2.3,-1 3.64,-1.07 2.83,-0.05 5.67,0 8.5,0 1.83,0 4.19,-0.43 4.28,2.14 0.14,4 3.89,5 5.51,7.68 a 3.43,3.43 0 0 1 -1.77,1.45 c -2.8,0.15 -5.63,0.05 -8.47,0.05 z"
         class="cls-1" />
      <path
         style="fill:#ffffff;fill-opacity:1"
         id="path68"
         d="m 145.18,208.59 c -0.08,0.32 -0.16,2.55 -0.78,2.72 a 135.07,135.07 0 0 1 -15.17,3.17 c -0.83,0.12 -1.86,-1.95 -3,-2.79 -4,-3 4.58,-6.86 -0.66,-9.75 1.37,-1.89 3.38,-1 5.12,-1.11 3.43,-0.12 3.51,2.09 2.75,4.53 -0.41,1.3 -3.74,2 -0.95,3.83 a 3,3 0 0 0 3.75,-0.85 17.17,17.17 0 0 1 4,-3.9 A 4.87,4.87 0 0 1 144,204 c 1.52,0.48 1.16,2.22 1.18,4.59 z"
         class="cls-1" />
      <path
         style="fill:#ffffff;fill-opacity:1"
         id="path70"
         d="m 4167.61,152.09 c -5.31,1.63 -6.55,-3.41 -10.29,-2.77 -1.29,0.22 -1.28,-2.27 -1,-3.56 a 2.69,2.69 0 0 1 1.92,-1.6 c 6.6,-0.69 13.52,1.53 19.85,-2.22 0.3,-0.18 2.05,1.74 2.87,2.87 1.25,1.73 -0.78,2.3 -1.54,2.9 -3.92,3.13 -9.55,1.66 -11.81,4.38 z"
         class="cls-1" />
      <path
         style="fill:#ffffff;fill-opacity:1"
         id="path72"
         d="m 835.41,195.13 c 3.24,0 6.48,0.08 9.72,0 2.82,-0.09 3.82,2.32 5.33,3.85 1.67,1.69 0.22,4.53 -2.28,4.66 a 41.1,41.1 0 0 1 -15.61,-2.48 c -2.85,-1 -6.41,-2.62 -6.29,-4.12 0.31,-3.91 4.16,-1.08 6.36,-1.83 a 8.94,8.94 0 0 1 2.77,-0.08 z"
         class="cls-1" />
      <path
         style="fill:#ffffff;fill-opacity:1"
         id="path74"
         d="m 3840,126.85 c 1.9,3.11 4.64,2.86 7.42,3.21 2.78,0.35 7.3,-2.57 8.07,2.25 0.66,4.1 -4.21,5.58 -6.46,8.34 -0.52,0.64 -2.9,0.71 -3.6,0.1 a 66.65,66.65 0 0 1 -8.76,-9 c -0.33,-0.43 2.12,-3.11 3.33,-4.9 z"
         class="cls-1" />
      <path
         style="fill:#ffffff;fill-opacity:1"
         id="path76"
         d="m 4200.31,141.27 a 32.1,32.1 0 0 1 4.17,0 c 2,0.27 5,-1.36 5.53,2.17 0.48,3.29 -2.33,5.39 -4.53,6.11 -5.5,1.82 -10.26,-1.4 -14.93,-3.87 -0.44,-0.23 -0.49,-1.77 -0.25,-2.55 0.24,-0.78 1,-1.76 1.67,-1.81 2.77,-0.16 5.55,-0.05 8.34,-0.05 z"
         class="cls-1" />
      <path
         style="fill:#ffffff;fill-opacity:1"
         id="path78"
         d="m 4100.35,104.42 c 2.51,0 4.44,-0.33 6.2,0.08 2.56,0.6 7.57,-2.52 7,3.36 -0.42,4.15 -4.52,1.39 -6.79,2.26 -3,1.14 -5.29,-4.59 -9.09,-0.29 -1.42,1.61 -6.2,0.32 -9.44,0.22 a 8,8 0 0 1 -2.39,-0.9 17.23,17.23 0 0 1 2,-2.93 c 3.93,-3.73 8.82,-0.87 12.51,-1.8 z"
         class="cls-1" />
      <path
         style="fill:#ffffff;fill-opacity:1"
         id="path80"
         d="m 3971.22,152.61 c -2.79,0 -5.58,0.12 -8.36,0 -1.46,-0.09 -2.29,-1 -2.31,-2.71 -0.02,-1.71 0.74,-2.72 2.17,-2.86 4.82,-0.48 9.78,1 14.3,-2.7 1.9,-1.58 3.89,1.64 5.36,3.24 1.87,2 1,4.9 -1.41,5 -3.24,0.16 -6.5,0.03 -9.75,0.03 z"
         class="cls-1" />
      <path
         style="fill:#ffffff;fill-opacity:1"
         id="path82"
         d="m 1014.94,200.79 c -6.18,1.69 -11,-5 -17.27,-2.92 -0.47,0.15 -1.33,-0.91 -2,-1.42 a 7.47,7.47 0 0 1 2.29,-1.29 c 3.52,-0.51 7.06,0.79 10.4,-2.54 3,-3 4.63,3.77 8.56,2.74 1.65,-0.43 6.11,-2.54 6.1,1.75 0,1.87 -3.2,4.56 -6.65,3.68 a 6,6 0 0 0 -1.43,0 z"
         class="cls-1" />
      <path
         style="fill:#ffffff;fill-opacity:1"
         id="path84"
         d="m 3189.52,136.78 c -0.34,2.26 -5.89,5 -7.7,3.58 -3.46,-2.76 -6.08,-1.72 -9.77,-0.4 -2.59,0.92 -5.89,-2.15 -9.47,-1.81 -1.56,0.15 -0.68,-1.79 0.26,-2.76 1.6,-1.65 3.4,-3.92 5.71,-2.25 5.52,4 10.6,3.48 16.32,0.35 2.13,-1.14 2.76,2.71 4.65,3.29 z"
         class="cls-1" />
      <path
         style="fill:#ffffff;fill-opacity:1"
         id="path86"
         d="m 4278.26,115.76 c 3,0.41 6.31,-1.08 9,1.89 1,1.14 4.5,1.61 4.44,2 -0.58,3.32 -3.38,1.43 -5.24,1.78 -3,0.57 -6,-0.6 -9,1.81 -2.51,2 -7.07,-0.92 -7.79,-4.19 -0.33,-1.51 0.37,-2.95 1.74,-3.15 a 47.37,47.37 0 0 1 6.85,-0.14 z"
         class="cls-1" />
      <path
         style="fill:#ffffff;fill-opacity:1"
         id="path88"
         d="m 901.46,172.46 c -0.52,-0.05 -3.67,0.16 -3.87,-0.49 -1.08,-3.66 -7.39,-0.41 -6.82,-5.21 0.64,-5.45 5,-2.19 7.69,-2.68 2,-0.38 4.51,-0.93 6.38,1.19 1.5,1.7 3.84,3.12 2.78,5.73 -0.83,2 -3.1,1.42 -6.16,1.46 z"
         class="cls-1" />
      <path
         style="fill:#ffffff;fill-opacity:1"
         id="path90"
         d="m 171.17,229.14 c -2.36,0 -4.86,0.49 -7,-0.15 -2,-0.57 -4.33,-2.31 -4.13,-4.5 0.13,-1.39 2.28,-3.11 3.89,-3.74 3.09,-1.22 12.13,2.93 14.41,6 1.63,2.22 -0.53,2.15 -1.48,2.28 a 44.92,44.92 0 0 1 -5.69,0.11 z"
         class="cls-1" />
      <path
         style="fill:#ffffff;fill-opacity:1"
         id="path92"
         d="m 3056.36,112.92 v 2.83 c -1.42,0 -3.58,-0.6 -4.13,0.09 -5.19,6.46 -9.84,0.57 -14.6,-0.51 -1.66,-0.38 -1.37,-2.48 -1,-3.68 0.43,-1.43 2.61,-2.29 3.33,-1.47 3.7,4.19 6.83,2.33 10.64,0.14 1.07,-0.61 3.79,1.68 5.76,2.6 z"
         class="cls-1" />
      <path
         style="fill:#ffffff;fill-opacity:1"
         id="path94"
         d="m 5190.85,107.25 h 2.83 c -0.67,3 6,4.08 1.92,8.11 -3,3 -8.4,4.58 -12.26,2.78 -1.61,-0.75 -1.2,-2.48 -0.94,-3.68 0.97,-4.46 7.55,-2.53 8.45,-7.21 z"
         class="cls-1" />
      <path
         style="fill:#ffffff;fill-opacity:1"
         id="path96"
         d="m 5492.11,166.77 a 45.27,45.27 0 0 1 5.56,0.05 c 2.55,0.32 2.17,2.39 2.17,4.21 0,1.82 0.38,3.88 -2.17,4.21 a 33.66,33.66 0 0 1 -5.56,0 c -3.71,-0.15 -6.27,-2.36 -6.3,-5.77 -0.04,-4.55 4.09,-1.92 6.3,-2.7 z"
         class="cls-1" />
      <path
         style="fill:#ffffff;fill-opacity:1"
         id="path98"
         d="m 368.27,167.33 c 2.79,4 7,1.35 10.37,2.43 1.83,0.59 4.74,2.58 3.91,4.49 -0.92,2.11 -3.52,5.67 -6.42,3.41 -2.52,-2 -4.8,-2.16 -7.57,-2.47 -3.64,-0.41 -1.91,-3.55 -2.23,-5.58 -0.23,-1.37 0.03,-2.61 1.94,-2.28 z"
         class="cls-1" />
      <path
         style="fill:#ffffff;fill-opacity:1"
         id="path100"
         d="m 576,144.1 c -2.13,-4.12 -1.36,-7.91 2,-8.41 3,-0.45 6.22,-0.1 9.33,-0.1 0,1.35 -0.58,3.24 0.1,4 3.11,3.34 3.28,4.89 -2,4.57 -3.05,-0.21 -6.22,-0.06 -9.43,-0.06 z"
         class="cls-1" />
      <path
         style="fill:#ffffff;fill-opacity:1"
         id="path102"
         d="m 5304.46,148.13 c -0.78,-1.57 -2,-3.08 -2.25,-4.73 -0.7,-4.65 -3.38,-5.65 -7.55,-5 -1.54,0.23 -4.2,0.76 -4.11,-1.62 0.05,-1.37 2.24,-3.45 3.76,-3.76 2,-0.42 4.6,-1.23 6.55,0.68 2.66,2.6 5.19,5.36 7.94,7.86 1.89,1.72 -0.22,2.13 -0.79,3 a 39.44,39.44 0 0 1 -3.55,3.57 z"
         class="cls-1" />
      <path
         style="fill:#ffffff;fill-opacity:1"
         id="path104"
         d="m 3228.07,135.6 c 3.13,1 9.07,-2.1 9.31,2.23 0.4,7.46 -6.42,1.58 -9.57,3.35 -1.06,0.6 -2.74,0 -4.13,0.1 -2.83,0.11 -5.11,-2.74 -5.07,-3.88 0.12,-3.29 3.33,-1.37 5.21,-1.74 a 22.29,22.29 0 0 1 4.25,-0.06 z"
         class="cls-1" />
      <path
         style="fill:#ffffff;fill-opacity:1"
         id="path106"
         d="m 4949.24,149.78 a 8.33,8.33 0 0 1 8.27,3.2 4.28,4.28 0 0 1 0.79,3.79 2.48,2.48 0 0 1 -2,1.42 c -3,-0.4 -6.42,1.49 -9.15,-1.23 -1.59,-1.59 -3.89,-3 -2.85,-5.67 0.82,-2.04 3.04,-1.51 4.94,-1.51 z"
         class="cls-1" />
      <path
         style="fill:#ffffff;fill-opacity:1"
         id="path108"
         d="m 5416.21,163.94 c -1.84,0 -3.89,0.5 -5.47,-0.14 -1.58,-0.64 -3.59,-2.26 -3.82,-3.7 -0.44,-2.74 2.24,-1.73 3.69,-1.79 3.22,-0.13 6.74,-0.84 9.59,0.19 2.63,1 4,-6.12 5.69,-0.88 1.06,3.24 -2.13,5.59 -5.54,6.27 a 21.4,21.4 0 0 1 -4.14,0.05 z"
         class="cls-1" />
      <path
         style="fill:#ffffff;fill-opacity:1"
         id="path110"
         d="m 4222,149.77 c -0.46,0 -0.92,0 -1.38,0 -2.06,-0.19 -5,0.83 -4.79,-2.86 0.2,-3 2.87,-5.64 5,-5.35 3.68,0.48 7.15,2.52 11,3.34 2,0.43 -0.65,1.78 -1.16,2.65 -2.12,3.6 -5.72,1.79 -8.67,2.22 z"
         class="cls-1" />
      <path
         style="fill:#ffffff;fill-opacity:1"
         id="path112"
         d="m 3760.75,144.1 c -4.54,0 -7.8,0.07 -11.05,0 -1.55,0 -4.17,0.8 -4,-1.71 0.12,-1.41 2.28,-3.47 3.78,-3.73 2,-0.35 4.7,-1.34 6.51,0.78 1.35,1.58 3,1.61 4.82,2 4,0.78 8.74,-2.71 12.2,1.8 -4.36,2.2 -9.07,-0.1 -12.26,0.86 z"
         class="cls-1" />
      <path
         style="fill:#ffffff;fill-opacity:1"
         id="path114"
         d="m 3290,141.27 c -2.81,-2.12 -9.79,4.09 -9.33,-3.48 0.26,-4.21 6.16,-1.39 9.43,-2.13 a 25,25 0 0 1 4.17,-0.06 c 2.83,-0.14 5.09,2.59 5.1,3.84 0,3.46 -3.25,1.36 -5.07,1.78 a 19.94,19.94 0 0 1 -4.3,0.05 z"
         class="cls-1" />
      <path
         style="fill:#ffffff;fill-opacity:1"
         id="path116"
         d="m 5511.17,101.58 c -3,1.55 8.26,5.17 -0.7,5.51 -3.74,0.14 -7.63,1.34 -11.59,-1.7 -2.34,-1.79 -6.86,-0.75 -10.39,-1 v -2.83 z"
         class="cls-1" />
      <path
         style="fill:#ffffff;fill-opacity:1"
         id="path118"
         d="m 3909.55,138.43 c 2.39,1.57 3.26,-4.51 5.07,-1.69 1.55,2.41 6.42,0 5.34,3.76 -0.59,2.05 -3.55,5.46 -6.43,3 -3.26,-2.78 -5.18,-2.77 -8.06,0.23 a 2.64,2.64 0 0 1 -4.3,-1.51 c -0.44,-1.77 -0.19,-3.81 2.57,-3.79 1.88,0.01 3.76,0 5.81,0 z"
         class="cls-1" />
      <path
         style="fill:#ffffff;fill-opacity:1"
         id="path120"
         d="m 638.41,163.94 c 3,-0.41 4.89,-4.22 8.5,-2.83 0,2.77 0,5.53 0,8.3 0.07,3.62 -2.53,2.92 -4.71,3.06 -3.7,0.23 -5.31,-2 -5.6,-5.18 -0.07,-0.95 2.25,-1.61 1.81,-3.35 z"
         class="cls-1" />
      <path
         style="fill:#ffffff;fill-opacity:1"
         id="path122"
         d="m 3820.07,144.1 c -2.8,-2.14 -10.06,4 -9.22,-3.5 0.51,-4.57 7.05,-1.62 10.82,-2 1.83,-0.17 3.79,1.89 5.81,2.57 1.2,0.4 2.75,0.18 2.06,2 -0.19,0.51 -1.53,0.79 -2.35,0.83 -2.32,0.17 -4.65,0.1 -7.12,0.1 z"
         class="cls-1" />
      <path
         style="fill:#ffffff;fill-opacity:1"
         id="path124"
         d="m 111.16,209.46 c 0.14,1.73 -0.84,2.41 -2.38,2.68 -3,0.53 -4.51,-4.59 -7.16,-2.67 -2.65,1.92 -4.07,2.66 -6.31,-0.12 -0.75,-0.93 -4.06,1.17 -3.18,-2.15 0.31,-1.18 2.06,-3 2.85,-2.86 5.44,1 10.8,2.41 16.17,3.76 0.11,0.04 0.02,0.9 0.01,1.36 z"
         class="cls-1" />
      <path
         style="fill:#ffffff;fill-opacity:1"
         id="path126"
         d="m 479.67,158.28 c -3.21,-1.72 -5.78,3.69 -8.09,1.49 -3,-2.85 -7.64,0.47 -10,-3.76 -0.9,-1.64 -2.69,-3.23 -1.59,-4.83 1.91,-2.77 2.62,1.31 3.88,1.17 5.62,-0.62 10,4.55 15.76,3.09 z"
         class="cls-1" />
      <path
         style="fill:#ffffff;fill-opacity:1"
         id="path128"
         d="m 4861.81,128 c -3,-1.27 -4.07,4.13 -7,1.73 -1.44,-1.18 -2.66,-2.62 -4,-3.94 1.64,-1.46 3.56,-4.37 4.86,-4.11 3.76,0.74 7.3,2.55 11.17,3.43 1.69,0.39 -0.76,1.85 -1.38,2.69 -1.07,1.47 -2.46,3.48 -3.65,0.2 z"
         class="cls-1" />
      <path
         style="fill:#ffffff;fill-opacity:1"
         id="path130"
         d="m 4247.06,152.58 c -1.76,0.35 -2.92,-0.69 -2.9,-2 0.06,-3.72 5.58,-8.73 10,-9.26 1.8,-0.22 3.83,-0.37 4.1,2.18 0.21,1.94 -0.26,3.78 -2.83,3.44 -3.71,-0.5 -6,0.51 -6.16,4.7 -0.06,0.36 -1.5,0.64 -2.21,0.94 z"
         class="cls-1" />
      <path
         style="fill:#ffffff;fill-opacity:1"
         id="path132"
         d="m 4337.83,115.76 c 2.65,0.94 7.64,-2.35 8,2.2 0.55,6.65 -5.36,2.33 -8.22,3.42 a 9.53,9.53 0 0 1 -2.77,0.05 c -2.82,0.13 -5.08,-2.7 -5.06,-3.87 0.07,-3.33 3.31,-1.29 5.15,-1.77 a 12.11,12.11 0 0 1 2.9,-0.03 z"
         class="cls-1" />
      <path
         style="fill:#ffffff;fill-opacity:1"
         id="path134"
         d="m 4106.6,127.09 c 1.85,0 3.77,-0.31 5.52,0.1 1.37,0.32 1.81,1.91 1.54,3.35 -0.27,1.44 -1.75,3.14 -2.62,2.11 -3.68,-4.36 -6.86,0.71 -10.27,0.17 -1.77,-0.28 -3.82,0.25 -4.06,-2.34 -0.19,-2.05 0.46,-3.51 3,-3.41 2.29,0.1 4.58,0.02 6.89,0.02 z"
         class="cls-1" />
      <path
         style="fill:#ffffff;fill-opacity:1"
         id="path136"
         d="m 3683.56,155.44 a 29.64,29.64 0 0 1 -4.19,0 2.43,2.43 0 0 1 -2.29,-2.77 c 0,-1.75 0.81,-2.7 2.25,-2.8 2.78,-0.19 5.59,-0.07 8.39,-0.05 1.91,0 3.66,0.06 3.66,2.81 0,2.75 -1.68,2.85 -3.62,2.85 z"
         class="cls-1" />
      <path
         style="fill:#ffffff;fill-opacity:1"
         id="path138"
         d="m 935.31,149.77 a 29.63,29.63 0 0 1 4.19,0 2.43,2.43 0 0 1 2.29,2.77 c 0,1.75 -0.81,2.7 -2.25,2.8 -2.78,0.19 -5.59,0.07 -8.39,0.05 -1.91,0 -3.66,-0.06 -3.66,-2.81 0,-2.75 1.68,-2.85 3.62,-2.85 z"
         class="cls-1" />
      <path
         style="fill:#ffffff;fill-opacity:1"
         id="path140"
         d="m 1481,209.29 a 30,30 0 0 1 -4.12,0 c -2.52,-0.34 -3.27,-2.94 -1.28,-5.07 1.99,-2.13 4,-5.58 7.61,-2 1.61,1.59 3.76,3.11 2.66,5.67 -0.87,2.01 -3.14,1.35 -4.87,1.4 z"
         class="cls-1" />
      <path
         style="fill:#ffffff;fill-opacity:1"
         id="path142"
         d="m 3722.85,143.07 c 0.44,-0.61 0.77,-1.58 1.33,-1.73 2.15,-0.58 4.73,1 6.57,-1.24 2.2,-2.64 5,-1.65 7.67,-1.3 0.37,0 0.67,0.63 1,1 -2.73,2.39 -5.13,5.87 -8.29,6.8 -2.2,0.62 -5.43,-2.22 -8.28,-3.53 z"
         class="cls-1" />
      <path
         style="fill:#ffffff;fill-opacity:1"
         id="path144"
         d="m 3817.51,132.77 c -1.87,0 -3.81,0.31 -5.57,-0.11 -1.39,-0.33 -1.85,-2 -1.5,-3.38 0.2,-0.8 0.84,-2 1.42,-2.09 a 15.23,15.23 0 0 1 5.56,0 c 2.57,0.6 7.6,-2.53 7,3.4 -0.48,4.41 -4.66,1.15 -6.91,2.18 z"
         class="cls-1" />
      <path
         style="fill:#ffffff;fill-opacity:1"
         id="path146"
         d="m 706.38,201.08 c -0.71,2.86 -2.53,5.63 -6.11,5.18 -1.84,-0.23 -4,-2.28 -4.93,-4.08 -0.78,-1.57 5.64,-4.69 8.82,-4.21 1.46,0.22 2.46,0.97 2.22,3.11 z"
         class="cls-1" />
      <path
         style="fill:#ffffff;fill-opacity:1"
         id="path148"
         d="m 3962.07,144.1 c -0.93,0 -2,0.28 -2.75,-0.06 a 2.81,2.81 0 0 1 -1.49,-3.41 c 0.19,-0.8 0.84,-2 1.38,-2.1 a 29.88,29.88 0 0 1 6.92,0 c 1.86,0.25 5.07,-1.58 5.15,1.73 0,1.16 -2.23,4 -5,3.87 -1.43,-0.07 -2.82,-0.03 -4.21,-0.03 z"
         class="cls-1" />
      <path
         style="fill:#ffffff;fill-opacity:1"
         id="path150"
         d="m 674.26,163.53 a 37,37 0 0 0 -4.33,-2.38 c -1.84,-0.73 -5.51,1.31 -5.31,-1.77 0.11,-1.8 2.91,-4.56 6.53,-4.06 2,0.27 3.7,0.49 4.74,2.23 0.55,0.92 2.92,1.14 1.36,3 -0.92,1.03 -1.99,1.98 -2.99,2.98 z"
         class="cls-1" />
      <path
         style="fill:#ffffff;fill-opacity:1"
         id="path152"
         d="m 5652.79,172.45 c -1.38,0 -2.77,0.06 -4.14,0 -0.35,0 -1,-0.71 -0.92,-0.91 a 5,5 0 0 1 1,-1.79 c 3.7,1.43 4.82,-4.68 8.53,-2.91 2,1 6,-2.22 6.08,2 0,1.7 -3,4.51 -6.44,3.76 a 19.85,19.85 0 0 0 -4.11,-0.15 z"
         class="cls-1" />
      <path
         style="fill:#ffffff;fill-opacity:1"
         id="path154"
         d="m 641.26,183.89 a 2.09,2.09 0 0 1 -2.14,2.65 c -2.14,0 -4.5,0.87 -6.35,-1.25 -1.48,-1.69 -4,-3.22 -2.73,-5.64 1.27,-2.42 4,-2.37 5.42,0 1.42,2.37 6.21,-0.36 5.8,4.24 z"
         class="cls-1" />
      <path
         style="fill:#ffffff;fill-opacity:1"
         id="path156"
         d="m 875.87,186.62 c 2.21,0.7 6.77,-1.6 6.08,2.77 -0.84,5.4 -3.64,2.14 -6.54,0.8 -1.88,-0.87 -6.41,5.76 -7.07,-0.93 -0.51,-5.13 4.96,-1.61 7.53,-2.64 z"
         class="cls-1" />
      <path
         style="fill:#ffffff;fill-opacity:1"
         id="path158"
         d="m 643.94,203 c 0.48,2.37 -0.59,3.17 -2,3.45 -3,0.61 -9.71,-2.55 -9,-4.07 0.86,-1.81 2.94,-3.9 4.77,-4.2 3.68,-0.62 5.38,2.3 6.23,4.82 z"
         class="cls-1" />
      <path
         style="fill:#ffffff;fill-opacity:1"
         id="path160"
         d="m 3433.37,118.59 h 2.83 c 0,4.65 6,1.66 6.85,5.38 0.16,0.73 0.89,1.34 1.35,2 a 7.91,7.91 0 0 1 -2.36,1.08 c -4.13,0.36 -8.14,0 -11.51,-2.79 z"
         class="cls-1" />
      <path
         style="fill:#ffffff;fill-opacity:1"
         id="path162"
         d="m 3635.89,144.1 c -1.84,0 -3.79,0.4 -5.47,-0.11 -1.68,-0.51 -1,-1.75 0,-2.83 a 8.11,8.11 0 0 1 5.76,-2.87 c 3.52,-0.21 6.18,2.45 6.28,4.12 0.17,3 -3.33,1.22 -5.22,1.68 a 6,6 0 0 1 -1.35,0.01 z"
         class="cls-1" />
      <path
         style="fill:#ffffff;fill-opacity:1"
         id="path164"
         d="m 2590.06,155.44 c -1.85,0 -3.7,0 -5.55,0 -0.35,0 -1,-0.63 -1,-0.85 a 7.42,7.42 0 0 1 0.84,-1.87 c 3.76,1.61 4.75,-4.46 8.62,-3 1.58,0.58 3.82,-0.26 4.1,2.32 0.21,2 -0.31,3.62 -2.89,3.47 -1.34,-0.14 -2.73,-0.07 -4.12,-0.07 z"
         class="cls-1" />
      <path
         style="fill:#ffffff;fill-opacity:1"
         id="path166"
         d="m 163.5,195.17 c -2.45,-0.1 -4.4,-0.14 -4.13,-2.85 0.27,-2.71 4.06,-6.15 6.45,-5.67 2.39,0.48 1.85,2.53 2.1,4.28 0.6,4.27 -1.92,4.46 -4.42,4.24 z"
         class="cls-1" />
      <path
         style="fill:#ffffff;fill-opacity:1"
         id="path168"
         d="m 2077.11,198 c -2.47,0.22 -5,0 -4.42,-4.24 0.25,-1.75 -0.34,-3.8 2.1,-4.28 2.44,-0.48 6.17,2.92 6.45,5.67 0.28,2.75 -1.68,2.75 -4.13,2.85 z"
         class="cls-1" />
      <path
         style="fill:#ffffff;fill-opacity:1"
         id="path170"
         d="m 2404.4,152.61 c 3.74,-3 8.15,-3.34 12.61,-2.74 1.33,0.18 1.8,1.88 1.54,3.32 -0.26,1.44 -1.58,3.1 -2.6,2.14 -4.07,-3.86 -7.74,0.92 -11.56,0.11 z"
         class="cls-1" />
      <path
         style="fill:#ffffff;fill-opacity:1"
         id="path172"
         d="m 5523.12,135.44 a 17.19,17.19 0 0 1 4,0.64 c 1.67,0.7 1.46,2.89 0.9,3.63 -1.79,2.32 -9.27,2.35 -11.11,0 -0.57,-0.71 -0.79,-3 0.87,-3.62 a 24.5,24.5 0 0 1 5.34,-0.65 z"
         class="cls-1" />
      <path
         style="fill:#ffffff;fill-opacity:1"
         id="path174"
         d="m 247.26,213.8 -4.82,3.46 c -1.24,-2.24 -3.82,-1.85 -5.57,-2.95 -0.77,-0.48 -0.91,-2.37 -0.86,-3.59 0,-0.5 1.26,-1.23 2,-1.37 3.18,-0.58 8.78,2.06 9.25,4.45 z"
         class="cls-1" />
      <path
         style="fill:#ffffff;fill-opacity:1"
         id="path176"
         d="m 233.73,229.14 a 27.22,27.22 0 0 1 -4.18,0 2.46,2.46 0 0 1 -2.24,-2.81 c 0,-1.77 0.83,-2.61 2.28,-2.76 a 50.56,50.56 0 0 1 5.58,0 c 1.94,0 3.6,0.17 3.6,2.86 0,2.69 -1.74,2.78 -3.64,2.81 z"
         class="cls-1" />
      <path
         style="fill:#ffffff;fill-opacity:1"
         id="path178"
         d="m 4913.78,121.43 a 14,14 0 0 1 2.76,0 2.47,2.47 0 0 1 2.26,2.77 c 0,1.7 -0.8,2.77 -2.18,2.79 -2.15,0 -4.58,0.93 -6.36,-1.27 -0.85,-1.05 -1.87,-2 -2.82,-2.95 a 29.94,29.94 0 0 1 3.59,-1.33 12.08,12.08 0 0 1 2.75,-0.01 z"
         class="cls-1" />
      <path
         style="fill:#ffffff;fill-opacity:1"
         id="path180"
         d="m 5292.61,145.11 c -1.39,2.23 -2.65,4.49 -5.63,4.66 -1.64,0.1 -2.71,-0.89 -2.51,-2.33 0.3,-2.27 -1.78,-5.84 2.81,-6.16 2.79,-0.19 3.34,2.72 5.33,3.83 z"
         class="cls-1" />
      <path
         style="fill:#ffffff;fill-opacity:1"
         id="path182"
         d="m 3423.4,127.09 a 9.85,9.85 0 0 1 -3,-0.3 c -0.58,-0.19 -1,-1.34 -1.21,-2.13 -0.37,-1.45 0.38,-3.08 1.62,-3.12 2.52,-0.08 5.65,-1.33 7.28,1.83 0.6,1.15 3.14,0.09 2.33,2.22 a 3,3 0 0 1 -2,1.44 33.77,33.77 0 0 1 -5.02,0.06 z"
         class="cls-1" />
      <path
         style="fill:#ffffff;fill-opacity:1"
         id="path184"
         d="m 3373.51,151.53 c -2,1.75 -3.34,4.48 -6.76,4 -1.75,-0.26 -3.92,0.32 -4.15,-2.18 -0.1,-1.14 0.72,-3.3 1.34,-3.39 a 42.36,42.36 0 0 1 8.27,-0.08 c 0.47,0 0.87,1.07 1.3,1.65 z"
         class="cls-1" />
      <path
         style="fill:#ffffff;fill-opacity:1"
         id="path186"
         d="m 5381,121.43 a 24.9,24.9 0 0 1 -4.29,-0.09 2.12,2.12 0 0 1 -1.07,-1.76 c 0.47,-3.19 7.87,-5.27 10.3,-2.75 0.62,0.64 0.5,2.67 0,3.62 -1.22,1.98 -3.43,0.55 -4.94,0.98 z"
         class="cls-1" />
      <path
         style="fill:#ffffff;fill-opacity:1"
         id="path188"
         d="m 4252.58,121.43 -2.83,-5.67 a 8.31,8.31 0 0 1 2.79,0 c 2.87,1.1 8.86,-3.26 8.26,3.45 -0.4,4.53 -5.42,1.33 -8.22,2.22 z"
         class="cls-1" />
      <path
         style="fill:#ffffff;fill-opacity:1"
         id="path190"
         d="m 4227.08,112.95 c -0.39,2.65 -2.3,4.88 -4.71,4.88 -1.19,0 -3.89,-2.18 -3.82,-5 0.09,-3.72 2.89,-2.62 4.9,-2.76 1.87,-0.07 3.7,0.09 3.63,2.88 z"
         class="cls-1" />
      <path
         style="fill:#ffffff;fill-opacity:1"
         id="path192"
         d="m 221.67,215.58 c -0.62,2.44 -4.59,3.31 -7.81,1.31 -1.29,-0.8 -2.83,-2.56 -2.77,-3.82 0.07,-1.53 2.26,-0.86 3.55,-0.92 a 20.26,20.26 0 0 1 5.5,0.08 c 1.3,0.32 1.86,1.77 1.53,3.35 z"
         class="cls-1" />
      <path
         style="fill:#ffffff;fill-opacity:1"
         id="path194"
         d="m 3651.83,129.93 c 1.54,0.4 3.76,-1 4.9,1 0.55,0.95 0.66,3 0,3.62 -2.43,2.52 -9.83,0.44 -10.3,-2.75 a 2.12,2.12 0 0 1 1.07,-1.76 24.89,24.89 0 0 1 4.33,-0.11 z"
         class="cls-1" />
      <path
         style="fill:#ffffff;fill-opacity:1"
         id="path196"
         d="m 3356.37,144.14 c -1.56,-0.4 -2.55,-1.05 -2.37,-2.73 a 5.67,5.67 0 0 1 4.69,-5.18 c 1,-0.18 2.51,2.31 3.78,3.58 -2.01,1.55 -2.96,4.64 -6.1,4.33 z"
         class="cls-1" />
      <path
         style="fill:#ffffff;fill-opacity:1"
         id="path198"
         d="m 3680.26,139.18 c -0.61,4.79 -2.56,6.69 -5,7.13 -1,0.18 -2.51,-2.31 -3.78,-3.58 2,-1.58 3,-4.65 6.27,-4.25 1.44,0.16 2.47,0.96 2.51,0.7 z"
         class="cls-1" />
      <path
         style="fill:#ffffff;fill-opacity:1"
         id="path200"
         d="m 3699.79,127.95 c -1.22,4.12 -4.67,1.4 -7,1.81 -1.07,0.18 -1.82,-2 -1.4,-3.34 1.24,-4 4.62,-1.83 7,-2 1.15,-0.07 1.61,1.92 1.4,3.53 z"
         class="cls-1" />
      <path
         style="fill:#ffffff;fill-opacity:1"
         id="path202"
         d="m 598.48,186.36 c 2,1.05 5.33,-1.42 5.18,2.12 -0.05,1.26 -2.21,3.86 -5,3.84 -2.79,-0.02 -4.95,-2.73 -5,-3.9 0.06,-3.53 3.51,-0.69 4.82,-2.06 z"
         class="cls-1" />
      <path
         style="fill:#ffffff;fill-opacity:1"
         id="path204"
         d="m 4215.73,112.08 c 0.55,3.38 -2.67,4.33 -4.14,6.4 -1.28,-1.2 -3.64,-2.44 -3.61,-3.6 0.07,-2.57 2.15,-4.27 4.85,-4.79 1.64,-0.31 2.38,0.68 2.9,1.99 z"
         class="cls-1" />
      <path
         style="fill:#ffffff;fill-opacity:1"
         id="path206"
         d="m 5505.65,175.29 c -2.75,0.17 -3.28,-1.63 -2.92,-3.53 0.65,-3.45 3.56,-1.88 5.58,-2.12 2.65,-0.32 3.14,1.6 2.8,3.49 -0.64,3.47 -3.6,1.72 -5.46,2.16 z"
         class="cls-1" />
      <path
         style="fill:#ffffff;fill-opacity:1"
         id="path208"
         d="m 895.84,243.32 c -1.9,-0.08 -3.85,0.49 -5.05,-1.37 -0.44,-0.68 5.32,-4.82 6.21,-4.23 1.8,1.19 4.95,3.43 4.67,4.13 -0.96,2.53 -3.87,1.15 -5.83,1.47 z"
         class="cls-1" />
      <path
         style="fill:#ffffff;fill-opacity:1"
         id="path210"
         d="m 3694.23,132.67 c 1.64,0.88 5,-1.59 4.87,1.95 -0.05,1.26 -2.21,3.86 -5,3.84 -2.79,-0.02 -5,-2.75 -4.95,-3.89 0.04,-3.34 3.31,-1.13 5.08,-1.9 z"
         class="cls-1" />
      <path
         style="fill:#ffffff;fill-opacity:1"
         id="path212"
         d="m 4003.09,125.12 c -1.13,4.18 -4.62,1.36 -7,1.8 -1.06,0.2 -1.86,-1.9 -1.45,-3.29 1.18,-4.07 4.58,-1.86 7,-2 1.15,-0.14 1.68,1.81 1.45,3.49 z"
         class="cls-1" />
      <path
         style="fill:#ffffff;fill-opacity:1"
         id="path214"
         d="m 3770.66,154.59 c 0.21,1.61 -0.25,3.6 -1.43,3.52 -2.38,-0.16 -5.76,2 -7,-2 -0.42,-1.36 0.33,-3.52 1.4,-3.34 2.37,0.42 5.8,-2.3 7.03,1.82 z"
         class="cls-1" />
      <path
         style="fill:#ffffff;fill-opacity:1"
         id="path216"
         d="m 5301.44,157.42 c 1.22,-4.12 4.67,-1.4 7,-1.81 1.07,-0.18 1.82,2 1.4,3.34 -1.24,4 -4.62,1.83 -7,2 -1.15,0.05 -1.61,-1.95 -1.4,-3.53 z"
         class="cls-1" />
      <path
         style="fill:#ffffff;fill-opacity:1"
         id="path218"
         d="m 538.19,223.39 c -3,0.42 -5,-0.11 -4.63,-3.39 0.31,-2.58 2.35,-2.13 4.17,-2.23 2.6,-0.14 4.71,0.21 4.27,3.51 -0.33,2.47 -2.21,2.52 -3.81,2.11 z"
         class="cls-1" />
      <path
         style="fill:#ffffff;fill-opacity:1"
         id="path220"
         d="m 3654.61,147.86 c -0.24,5.63 -3.05,4.59 -5.11,4.72 -2.06,0.13 -3.64,-0.17 -3.55,-2.84 0.13,-3.8 3,-2.62 5,-2.78 2,-0.16 3.7,0.21 3.66,0.9 z"
         class="cls-1" />
      <path
         style="fill:#ffffff;fill-opacity:1"
         id="path222"
         d="m 3236.33,115.47 a 3.69,3.69 0 0 1 1.4,2.32 c 0.3,1.26 -3.47,6.82 -4.17,6.41 -0.7,-0.41 -1.49,-1.47 -1.37,-2.08 0.45,-2.27 -1.75,-5.76 4.14,-6.65 z"
         class="cls-1" />
      <path
         style="fill:#ffffff;fill-opacity:1"
         id="path224"
         d="m 1729.77,168.16 c -2.08,1.44 -2.94,4.67 -6.25,4.28 a 2.29,2.29 0 0 1 -2.29,-2.57 c 0.12,-4.51 3.55,-2.85 5.83,-3 0.82,-0.04 2.88,-1.37 2.71,1.29 z"
         class="cls-1" />
      <path
         style="fill:#ffffff;fill-opacity:1"
         id="path226"
         d="m 3329.38,141.27 c -2.31,0 -3.71,0.06 -5.1,0 -0.36,0 -1,-0.69 -0.94,-0.89 0.2,-0.67 0.58,-1.73 1,-1.81 a 13.25,13.25 0 0 1 4.17,-0.05 c 2.65,0.38 7.72,-0.93 7.57,0.88 -0.42,5.22 -5.5,-1.22 -6.7,1.87 z"
         class="cls-1" />
      <path
         style="fill:#ffffff;fill-opacity:1"
         id="path228"
         d="m 5618.92,187.2 c -0.48,1.5 -1.13,2.36 -2.86,2.3 -3.7,-0.14 -2.83,-2.86 -2.77,-4.89 0,-1.2 0.82,-2.38 1.26,-3.57 1.67,1.96 4.68,2.96 4.37,6.16 z"
         class="cls-1" />
      <path
         style="fill:#ffffff;fill-opacity:1"
         id="path230"
         d="m 2390.26,162.41 c -1.41,2.07 -3.35,1.47 -5.09,1.53 -2,0.07 -3.49,-0.29 -3.49,-2.87 0,-2.58 1.91,-3.31 3.52,-2.65 1.92,0.78 3.41,2.58 5.06,3.99 z"
         class="cls-1" />
      <path
         style="fill:#ffffff;fill-opacity:1"
         id="path232"
         d="m 1539.85,211.53 c -0.06,1.82 -0.19,3.71 -2.84,3.41 -1.72,-0.2 -4.72,0.93 -4.89,-0.87 -0.23,-2.53 2.15,-4.29 4.91,-4.78 1.75,-0.29 2.38,0.79 2.82,2.24 z"
         class="cls-1" />
      <path
         style="fill:#ffffff;fill-opacity:1"
         id="path234"
         d="m 5493.54,163.83 c -3.23,0.37 -5.35,0.05 -5,-3.25 a 2.23,2.23 0 0 1 2.63,-2.3 5.51,5.51 0 0 1 5.21,4.72 c 0.16,1.44 -2.29,0.69 -2.84,0.83 z"
         class="cls-1" />
      <path
         style="fill:#ffffff;fill-opacity:1"
         id="path236"
         d="m 1935.24,192 a 3.73,3.73 0 0 1 1.4,2.32 c 0.3,1.26 -3.47,6.82 -4.17,6.41 -0.7,-0.41 -1.49,-1.47 -1.37,-2.08 0.43,-2.27 -1.76,-5.75 4.14,-6.65 z"
         class="cls-1" />
      <path
         style="fill:#ffffff;fill-opacity:1"
         id="path238"
         d="m 1032.19,195 3,1.42 c -1.89,1.72 -3,4.72 -6.24,4.31 a 2.35,2.35 0 0 1 -2.21,-2.75 c 0.09,-3.68 2.8,-2.63 5.45,-2.98 z"
         class="cls-1" />
      <path
         style="fill:#ffffff;fill-opacity:1"
         id="path240"
         d="m 2189,155.44 v -2.83 c 2.36,0 4.72,0 7.07,0 1.84,0 4,0.41 4.22,-2.24 0.25,-3.18 -3.86,-6.13 -4.29,-5.71 -5.52,5.37 -5.44,-2.56 -8.22,-3.29 -0.54,-0.14 -0.82,-1.26 -1.22,-1.93 a 11.38,11.38 0 0 1 2.41,-1 c 6.76,-1.1 14,2.4 20.38,-2 2,-1.42 2.39,0.66 3,1.35 4.94,5.93 12.58,6.93 19,8.63 5.47,1.44 11.1,3.06 16.62,4.57 1.93,0.53 2.69,1.2 4.11,-0.45 2.52,-2.94 4.88,-5.68 8.94,-1.29 1.95,2.1 4.06,-0.42 5.71,-2 1.92,-1.88 1.71,-3 -1.08,-3.06 -3.83,-0.07 -2.83,-2.87 -2.91,-5 -0.05,-1.42 -0.25,-3.36 -1.52,-3.28 -1.27,0.08 -0.94,2.3 -1.44,3.46 -1.24,2.84 -3.35,2.61 -5.39,0.69 -7.5,-7 -7.48,-7.32 -16.56,-7.24 -1.42,0 -3.28,-0.26 -3.16,-1.55 0.14,-1.45 2.14,-1.31 3.54,-1.3 2.36,0 4.72,0.06 7.07,0 6.63,-0.18 8.08,-2.24 4.56,-8.21 -1.13,-1.92 0.1,-5.44 -4.14,-6.16 -5.57,-0.94 -2.6,-6.09 -2.59,-9.14 0,-3.2 3.59,-1.69 5.66,-2 5.31,-0.75 11.07,1.77 15.93,-2.71 0.95,-0.87 4.24,-0.67 5.28,0.3 4.93,4.6 10.78,1.34 16,2.44 0.78,0.16 1.43,0.93 2.14,1.42 a 14.83,14.83 0 0 0 -2,2 c -1.54,2.3 -3.82,2.1 -6.18,2.28 -1.9,0.15 -5,-1.62 -5.37,1.72 -0.12,1.18 2.57,2.54 3.74,4 2.17,2.71 2.49,5 -1.9,5.52 a 2.47,2.47 0 0 0 -2.48,2.64 c -0.11,1.68 0.75,3.11 2.07,2.92 3.54,-0.5 5.89,1.81 8.79,2.81 3.75,1.28 10,-2 11.38,2 1.47,4.29 2.18,10.32 -0.84,14.81 -1.61,2.39 -0.47,3.07 0.84,4.06 0.78,0.59 3,2.77 2.68,1 -1.54,-9.58 7.37,-8.4 11.29,-9.8 6,-2.16 1.56,-3.16 0.74,-5 -0.35,-0.78 0.22,-2 -0.11,-2.78 -1.48,-3.64 5.17,-5 2.49,-8.55 -1.55,-2 -5.08,-1.4 -6.82,-4 -1.14,-1.71 -2.17,-4.09 -0.59,-4.68 3.41,-1.28 0.26,-7.15 5.49,-6.75 a 80.23,80.23 0 0 0 14.13,0 7.45,7.45 0 0 1 7.86,4.57 c 1.55,3.22 -2.33,4.58 -3.9,6.72 a 7.22,7.22 0 0 0 -1.11,2 c -0.07,0.2 0.55,0.78 1,0.94 a 3.91,3.91 0 0 0 1.4,0 c 1.38,2 4.34,0.77 5.67,2.83 -1.24,2.82 3.06,7 -3.52,8.91 -4.36,1.26 -2.53,7 -1,10.61 2.49,5.82 1.73,10.79 -0.79,16.69 -1.68,3.94 -4.25,4.38 -5.94,3.27 -6,-3.93 -12.45,-2.25 -18.74,-2.64 -7.21,-0.44 -14.4,0.87 -21.57,-2.55 -4.31,-2.05 -9.29,-0.7 -8.14,6.56 0.19,1.21 -2.32,1.9 -2.54,0.24 -1,-7 -3.32,-3.19 -7.08,-2.16 -3.58,1 -8.23,-1.71 -12.34,-3 -1.19,-0.38 -1.68,-2.43 -3.44,-1.9 -5.91,1.79 -11.78,3.88 -16.4,-2.76 -0.46,-0.66 -3,-0.63 -4.06,0 -5.91,3.61 -11.53,4.73 -17.66,0.23 -2.3,-1.69 -4.09,0.87 -5.77,2.44 -1.4,1.3 -2.71,4.52 -5,0.8 -2.29,-3.72 -6,-3.75 -9.84,-3.58 -1.87,0.01 -3.82,-0.1 -3.56,-2.89 z"
         class="cls-1" />
      <path
         style="fill:#ffffff;fill-opacity:1"
         id="path242"
         d="m 1806.43,124.54 c -3.88,-0.32 -6.53,0.26 -7.43,-0.74 -4.43,-4.92 -7.94,-0.64 -12.14,0.24 -9.58,2 -18.73,5.58 -28.73,6.4 -4.46,0.36 -8,2.89 -11.32,-1.85 -1.65,-2.39 -4.25,-1.19 -6.45,-1.51 -2.55,-0.37 -4.24,0.84 -6.17,2.38 -1,0.77 -2.23,-3.52 -5,-0.64 -2.77,2.88 -5.2,1.44 -5,-2.59 0.15,-3.48 -0.74,-4.73 -4.59,-5 -8,-0.46 -8.2,-0.92 -4.91,-8.67 1.5,-3.52 1.44,-5.2 -2.66,-5.34 -2.83,-0.1 -5.68,0.14 -8.5,-0.08 -1.46,-0.12 -2.22,-1.24 -2.13,-2.94 0.09,-1.7 0.9,-2.71 2.46,-2.62 3.55,0.22 7,-0.68 10.44,2.41 2.65,2.36 6.44,-0.13 6.78,-4.54 0.19,-2.48 3.07,-3.35 2.35,-5.61 -0.41,-1.29 -3.67,-2.51 -0.14,-3.53 2.18,-0.63 4.7,-0.29 7,-0.07 2.66,0.25 8,-0.52 7.49,1.21 -1.39,5 5.66,7.92 2.17,12.62 -0.73,1 -2.3,1.89 -0.35,3 1.12,0.62 3.58,0.59 3.64,1.07 0.38,3.09 -2.65,1.12 -3.53,2.05 -2.63,2.77 -4.77,4.08 -8,0.6 -1.19,-1.26 -2.07,0.75 -1.86,2.07 0.66,4.14 4.77,5.51 7.08,8.35 0.52,0.64 2.65,0.7 3.72,-0.71 2.47,-3.24 6,-1.47 9.11,-1.94 1.76,-0.27 4.74,1 5,-1.09 0.37,-3 -3.87,-0.72 -5,-3 -0.87,-1.75 -6.21,-3.77 0.68,-4.59 1.51,-0.18 4.16,-3 4,-3.33 -3.66,-6.24 6.44,-8.77 3.82,-14.79 -1,-2.21 -0.13,-4.52 3.33,-4.47 3.09,0 6.08,0.06 5,4.32 -0.88,3.4 3.15,4.37 3,7.35 -0.17,2.74 2.12,3 3.85,2.46 a 2.71,2.71 0 0 0 1.32,-4.43 c -1.92,-2.31 -4.28,-5.19 -0.74,-6.67 4.43,-1.85 1.89,-10 8.94,-8.72 a 8.58,8.58 0 0 0 7.65,-2.17 5.47,5.47 0 0 1 7.48,1 c 0.8,1 1.51,2 2.26,3 a 13,13 0 0 1 -2.41,1 c -3.6,0.74 -9.73,-1.78 -10.39,1.11 -1,4.2 6,3.76 8.4,6.88 a 26.2,26.2 0 0 0 1.88,2 21.18,21.18 0 0 1 -2.28,1.33 c -0.4,0.17 -0.95,0 -1.4,0 -3.38,0.66 -7.22,-1.46 -10.21,1.63 4.06,3 6.12,8.49 11.58,9.62 2.26,0.47 4.71,0.05 7.07,0.08 6.45,0.08 2,2.33 1.1,4.41 -0.7,1.56 -0.48,3.95 2.22,4 2.23,0.08 4.68,0.76 6.41,-1.6 1.49,-2 2.41,-0.24 2.45,0.82 0.04,1.06 -0.5,3.12 -1.36,3.52 -2,0.93 -6.51,-0.62 -6.2,1.07 0.46,3.37 2.89,5.85 -0.78,5.24 z"
         class="cls-1" />
      <path
         style="fill:#ffffff;fill-opacity:1"
         id="path244"
         d="m 2047.23,163.94 c 0.43,-6.22 -4,-8.85 -8.8,-11.91 a 9.15,9.15 0 0 0 -1,-1.6 c -0.13,0.07 0,0.51 0.48,1.19 1,1.39 1.13,1.31 0.54,0.41 -0.49,4.94 -5.73,3.54 -7.73,6.89 -1.39,2.32 -10.12,0.72 -11.39,-1.79 -0.49,-1 -0.07,-2.57 0.31,-3.77 0.73,-2.34 5.86,-2.92 3.73,-5.89 -2.73,-3.81 -2.2,-9.55 -7.21,-11.87 -2.78,-1.28 -5.52,-2.63 -8.28,-3.95 2.88,-3.3 6.81,-1.86 10,-1.54 9.13,0.89 18.59,-3 27.47,2 1.4,0.78 6.06,-4.35 7.93,-8.86 0.63,-1.53 1.3,-1.86 2.68,-1.84 2.36,0 4.72,0 7.08,0 1.35,0 3.66,0.34 3.6,-1.12 -0.09,-2.48 -2.68,-1.89 -4.21,-1.62 -2.85,0.49 -4.15,-3.26 -5.85,-2.7 -3.18,1.05 -9.27,-4.08 -9.5,4.09 0,1.35 -2.15,1.53 -3.56,1.34 -2.64,-0.34 -5.43,0.92 -7.88,-1.57 -3.72,-3.77 -9.75,1.46 -13.48,-3.06 4.45,-2.07 9.17,-0.69 13.75,-1 2.85,-0.17 3.94,-3.51 7.34,-3 5.38,0.74 3.81,-1.57 1.32,-4.05 -1.31,-1.3 -4.4,-2.3 -1,-5.1 1.69,-1.39 -0.6,-1.73 -1.73,-2 -3.66,-1 -8,2.09 -11.16,-1.83 4,-2.16 8.24,-0.49 12.34,-1 a 11.83,11.83 0 0 1 1.42,0 c 3.49,-2.83 6.46,-1 8.1,1.88 4,6.91 11.06,9 17.41,12.3 -0.93,5 0.12,8.73 5.75,10.13 1,0.25 2.49,2.06 2.33,2.84 -0.34,1.59 -2.22,1.15 -3.57,1.19 a 3.8,3.8 0 0 1 -1.4,0 c -3.28,-1.26 -6.14,-4.3 -10.08,-2.77 -2.66,1 -0.49,7.2 -5.88,5.84 a 7.26,7.26 0 0 0 -1.21,3.49 2.27,2.27 0 0 0 3,1.95 c 6.35,-1.41 6.92,4 5,6.43 -2.37,3 0.51,5.27 -0.75,7.31 -1.5,2.44 -3.78,3.93 -7,3.33 -2.28,-0.42 -3.4,0.93 -3.19,3.2 0.37,4.29 -1.65,6.87 -5.72,8.03 z"
         class="cls-1" />
      <path
         style="fill:#ffffff;fill-opacity:1"
         id="path246"
         d="m 1593.69,115.76 c 2.35,0.41 2.79,-2.3 4.5,-2.78 1.28,-0.35 3.33,0.33 3.6,-1.25 0.23,-1.38 -1.5,-1.8 -2.9,-1.64 a 7,7 0 0 1 -6.2,-2.25 c -1.93,-1.92 -6.28,1.1 -7.31,-2.17 -0.95,-3 -0.13,-6.54 -0.23,-9.84 -0.05,-1.76 0.84,-2.44 2.36,-2.75 2.34,-0.49 6.17,1.66 6.12,-3.14 0,-2.63 -2.69,-3.63 -4.22,-5.28 -1.18,-1.28 -1.11,-2.93 0.2,-2.76 7.49,1 13.92,-3.53 21.5,-3.37 8.36,0.18 16,3.24 24.1,3.83 1.3,0.09 3.17,2.37 3.42,3.87 0.21,1.23 -2.15,1.36 -3.5,1.16 -4.85,-0.7 -10.06,1.89 -14.61,-2.54 -1.62,-1.58 -3.3,0.44 -4.44,3.17 a 4.26,4.26 0 0 1 -7.92,-0.24 c -1.25,-2.93 -2.5,-3.1 -4.89,-3.22 -7.1,-0.38 -7.86,0.52 -5.87,7.92 0.21,0.79 1.82,1.32 1.86,2 0.42,7.27 2,9.69 7,9.89 5.18,0.2 10.38,0 15.57,0.07 2.59,0 2.94,-1.44 3.08,-3.5 0.05,-0.75 0.9,-1.44 1.39,-2.16 0.46,0.75 1.3,1.5 1.31,2.26 0,2.22 0.32,4.32 -1.44,6.5 -3.45,4.28 -0.79,5.54 3.44,5.37 1.43,-0.05 3.43,0 3.49,1.37 0.06,1.37 -1.9,1.58 -3.33,1.47 a 3.87,3.87 0 0 0 -1.41,0 c -1.23,0.39 -4.39,-0.6 -2.28,2.41 0.7,1 1.9,4.31 3.74,2.26 3,-3.4 3.58,0.32 5.14,1.17 1.19,0.65 1.17,2 0.48,1.88 -5.21,-1.19 -10.49,5.55 -15.47,0 -1.85,-2.06 -3.88,-2.16 -6.25,-2.11 -3.77,0.07 -7.55,0.1 -11.32,0 -3.15,-0.09 -5,-4.29 -8.73,-2.81 q -1.21,-0.94 -0.81,-1.89 0.4,-0.95 0.83,-0.9 z"
         class="cls-1" />
      <path
         style="fill:#ffffff;fill-opacity:1"
         id="path248"
         d="m 1663.41,81.74 c 1.41,0 2.83,0 4.24,0 5,0.13 7.8,3.14 5.12,6.49 -3.84,4.79 -2.28,7.15 1.32,10.2 1,0.84 0.83,1 -2.41,3.19 a 3,3 0 0 0 -1.39,3.54 c 0.95,2.43 1.88,5.06 3.55,7 3,3.4 2.91,6.56 0.14,9.67 -1.17,1.32 -1.39,3.25 -0.83,3.78 5.91,5.57 0,5 -2.49,4.16 -3.83,-1.24 -7.35,-3.35 -11.61,-2.63 -1.68,0.28 -2.59,-0.62 -3,-2.07 -2.36,-8.32 -8.52,-10 -16.08,-9.28 -1.41,0.13 -2.93,0.08 -3.58,-1.37 -0.15,-0.33 1.07,-1.31 1.72,-1.94 1.16,-1.13 2.17,-3.23 4,-0.7 0.27,0.38 0.65,1 1,1 2.23,0.06 5.68,1.41 6.41,-0.67 1.28,-3.66 -3.37,-0.68 -4.46,-2.85 -1,-1.93 -4.5,-3.4 -3,-5.64 2.19,-3.26 4.47,-7 9.17,-7.67 3.55,-0.5 7.51,1.56 10.64,-1.56 a 31.44,31.44 0 0 0 2.36,-3 c -0.79,-0.36 -1.63,-1.12 -2.37,-1 -3.74,0.45 -5.76,-0.55 -6.51,-4.75 -0.34,-1.89 -3.69,-3.51 1,-3.8 2.34,-0.22 4.7,-0.1 7.06,-0.1 z"
         class="cls-1" />
      <path
         style="fill:#ffffff;fill-opacity:1"
         id="path250"
         d="m 544.87,104.9 c 0,6 0.15,12 0,18 -0.18,5.78 -12.42,11.41 -17.35,8 -1.14,-0.78 -1.88,-2.17 -3,-2.91 -3.13,-2 -5.86,-0.94 -7.92,2.88 a 3.34,3.34 0 0 1 -0.67,1.12 c -3,2.26 -2.55,9.15 -5.81,8.29 a 110.62,110.62 0 0 0 -11.41,-2 c -3.13,-0.49 -5.52,-5.59 -4.79,-8.86 1.29,-5.77 4,-7.95 9.94,-8 1.88,0 3.75,0 5.63,0 9.71,-0.05 9.63,-0.06 10,-9.17 0.11,-2.63 0.27,-8 1.14,-7.44 4.33,2.68 6.41,-4.88 11,-1.36 3.63,2.76 8.63,1.51 12.47,-1.81 0.45,-0.38 1.91,-0.1 2.56,0.36 2.23,1.62 -0.66,1.92 -1.79,2.9 z"
         class="cls-1" />
      <path
         style="fill:#ffffff;fill-opacity:1"
         id="path252"
         d="m 1950,104.15 c -1.33,-0.15 -4.4,0.66 -7.35,3.87 -2.21,2.41 -7.53,5.45 -8.88,4.5 -4.26,-3 -9,-1.38 -13,-3 -2.52,-1 0.16,-2 1.08,-2.23 3.85,-1.1 6.05,-3 6.49,-7.49 0.39,-4 5.15,-5.87 7.56,-3 8.75,10.62 17.46,0.27 26.11,0.64 2.66,-3.84 6.37,-5 10.87,-4.44 3.4,0.45 3.29,-1.94 3.71,-4.33 0.26,-1.47 2.26,-1.66 3.56,-1.26 a 2.69,2.69 0 0 1 1.5,4.34 c -1.8,2 -2,2.79 -0.18,5.21 5,6.58 4.67,8.13 -0.27,15.39 -0.55,0.81 -3,1 -1,3 5,5 -0.35,4.84 -3,7 -3.53,2.82 -8.14,0.16 -10.38,2.12 -5.26,4.61 -6.36,0.22 -7.27,-2.84 -0.91,-3.06 -0.75,-6.71 4.59,-6 2.09,0.28 4.31,0.85 2.11,-3.4 -3.19,-6.09 -7.79,-7.54 -16.25,-8.08 z"
         class="cls-1" />
      <path
         style="fill:#ffffff;fill-opacity:1"
         id="path254"
         d="m 1548.33,104.42 c 4.47,2.75 8.37,6.59 14,7.16 0.37,0 4,1.17 1.93,3.79 a 10,10 0 0 1 -2,2 c -3,2.11 -2.24,-0.73 -2.63,-2.08 -0.94,-3.23 -4.12,-3.41 -4.89,-1.33 -1.37,3.69 -1.26,3.81 -5.52,2.36 a 21.2,21.2 0 0 0 -16,1.37 c -7.79,3.86 -15.87,-0.54 -23.6,-2.49 -3.84,-1 -4.33,-5.06 -1.67,-8.64 0.83,-1.12 2.19,-1.88 2.93,-3 2,-3.17 -1.74,-8 2.13,-10.22 2.94,-1.65 7.32,1.32 10.4,-2.16 1.43,-1.62 3,-0.49 4.83,0.13 5.81,2 11.23,5.2 17.84,4.84 3.5,-0.19 1.79,3.48 2.21,5.5 -1.06,1.37 -2.82,1.26 -4.19,2 1.33,0.75 3.03,-0.45 4.23,0.77 z"
         class="cls-1" />
      <path
         style="fill:#ffffff;fill-opacity:1"
         id="path256"
         d="m 1888,138.44 c -2.72,-1.5 -5.25,-3 -8.72,-3 -7.78,0.14 -10.87,2.26 -13.5,10.55 -1.46,4.6 -1.74,4.82 -5.53,0.06 a 4.57,4.57 0 0 0 -4.52,-2 c -5.08,0.3 -8.41,-1 -10,-6.77 -1.25,-4.44 -6,-5.11 -10.46,-4.61 -2.07,0.23 -3.58,-0.41 -3.49,-3 0.09,-2.76 2,-2.65 3.86,-2.65 1.41,0 2.84,-0.1 4.24,0 1.57,0.14 3.28,-0.53 3.17,-1.82 -1.16,-13.18 7.15,-4.43 9.91,-3.53 a 47.78,47.78 0 0 0 15.9,2.52 c 5.42,-0.09 10,4.49 15.8,2.86 1.31,-0.37 2.86,0.19 4.22,-0.1 4,-0.85 5.93,2 8.08,4.35 0.49,0.7 -7.64,7.13 -8.96,7.14 z"
         class="cls-1" />
      <path
         style="fill:#ffffff;fill-opacity:1"
         id="path258"
         d="m 220.79,138.43 c -3.76,0 -7.54,0.25 -11.27,-0.08 -3.09,-0.27 -8.13,2.38 -7.9,-4.33 0,-0.39 -1.64,-1.38 -2.16,-1.18 -7,2.71 -10.13,-5.51 -16,-5.68 -1.4,0 -1.92,-0.09 -1.38,-1.47 0.16,-0.4 0.71,-1 1,-1 11.12,2.4 15.91,-5.58 21.29,-12.78 3.19,-4.26 4.47,3 7.91,1.59 1.23,-0.5 -0.29,1.81 -0.89,2.64 -3.22,4.44 -2.84,7.54 1.78,7.81 5.26,0.31 9.81,6.19 16.33,0.69 3,-2.55 10,-0.71 15.13,-0.33 2.87,0.22 4.89,2.51 5.42,5.37 0.53,2.86 -2.11,4.33 -3.84,5.31 a 26.85,26.85 0 0 1 -16.91,3.44 69.06,69.06 0 0 0 -8.51,0 z"
         class="cls-1" />
      <path
         style="fill:#ffffff;fill-opacity:1"
         id="path260"
         d="m 2186.08,104.42 c 8.67,3.16 20.89,1 27.61,12 1.37,2.24 1.63,4.87 -1.78,4.87 -4.5,0 -3.05,6.29 -4.32,5.49 -7.57,-4.76 -14.76,3.85 -21.77,0.19 -3.92,-2 -8.46,-4.35 -8.16,-10 0.16,-3 -0.83,-4.16 -3.91,-4.15 -1.23,0 -2.17,-2.46 -0.5,-2.4 4.71,0.17 7.68,-1.18 8.79,-6 0.05,-0.18 1.77,0 4.04,0 z"
         class="cls-1" />
      <path
         style="fill:#ffffff;fill-opacity:1"
         id="path262"
         d="m 629.91,113.28 c -0.47,7.17 -7.79,13.58 -14.25,10.62 -6.46,-2.96 -13,-0.73 -18.7,-2.82 -5.7,-2.09 -11.48,-2.39 -17.36,-2.48 -2,0 -3.65,-0.29 -3.59,-3 0,-1.74 1.18,-2 2.34,-2.8 4.08,-2.79 9.74,-1.54 13.4,-5.48 0.52,-0.57 2.39,-0.06 3.79,0.78 5,3 10.19,3.2 15.28,-0.2 3.45,-2.31 7.88,0.77 11.77,-2.71 2.16,-1.88 7.58,4.11 7.32,8.09 z"
         class="cls-1" />
      <path
         style="fill:#ffffff;fill-opacity:1"
         id="path264"
         d="m 1475.56,93.93 c -1.81,1.64 -2.83,2.59 -3.87,3.5 -1.74,1.52 -3.5,2.82 -0.55,5.06 1.2,0.92 3.46,1.81 2.77,3.84 -0.22,0.65 -2.4,0.66 -3.7,0.91 -4.38,0.86 -9.38,-2.15 -13.21,2.07 -0.74,0.82 -1.93,0.72 -1.9,-0.44 0.16,-6.62 -4.79,-4.49 -7.84,-4.29 -3.22,0.21 -4.44,-2.67 -7.22,-3.28 -3.43,-0.74 -3.38,-6.69 0,-8.14 A 69.45,69.45 0 0 0 1453.66,85 c 1.54,-1.12 4.3,-4.15 6.93,-3.07 a 85.92,85.92 0 0 0 10,3.25 c 3.65,0.97 -1.93,7.95 4.97,8.75 z"
         class="cls-1" />
      <path
         style="fill:#ffffff;fill-opacity:1"
         id="path266"
         d="m 400.11,151.19 c 0.57,3.43 -1.53,4.2 -2.58,5.62 -1.05,1.42 -1.86,1.09 -3,0 -7.9,-7.49 -17,-4.85 -25.64,-2.23 a 23.81,23.81 0 0 1 -8.06,0.78 c -4.94,-0.18 -0.7,-2.36 -0.86,-3.71 -0.3,-2.52 -2.39,-4.45 -5.44,-4.72 -3.05,-0.27 -6.31,1.08 -9,-2.15 -2.31,-2.74 -2,-4.14 0,-7 2.65,-3.95 7.46,-0.23 9.85,-3.81 1.45,-2.16 2.14,-0.15 2.46,0.89 1.9,6.16 7.55,9.13 11.51,13.51 2.21,2.44 4.64,2.73 5.59,-1.63 1.13,-5.14 5.34,-1.84 8.08,-2.49 1.43,-0.34 2.77,-0.52 3.14,-2 0.37,-1.48 0.23,-2.9 -1.23,-3.64 -1.46,-0.74 -4.08,0.73 -3.81,-2 0.16,-1.66 2.37,-1.06 3.67,-1 2.64,0.2 5.23,-0.69 7.81,1.74 2,1.92 5.93,1.66 5.07,6.26 -0.67,3.15 -0.75,6.61 2.44,7.58 z"
         class="cls-1" />
      <path
         style="fill:#ffffff;fill-opacity:1"
         id="path268"
         d="m 1287.53,87.9 c 0,-3.49 3.29,-4.41 4.76,-6.67 1.92,-2.95 3.08,-0.85 5.11,0.17 3.59,1.8 5.91,-3.24 10,-2.68 5.06,0.69 9.61,-0.15 11.62,6.83 1.51,5.27 2.85,8.22 2.71,12.15 -0.17,4.67 -3.53,4.86 -5.51,3.69 -6,-3.58 -12.44,-2.33 -18.76,-2.7 -2.22,-0.13 -5.62,1.45 -6.45,-1 -1.09,-3.33 -0.74,-7.13 -3.48,-9.79 z"
         class="cls-1" />
      <path
         style="fill:#ffffff;fill-opacity:1"
         id="path270"
         d="m 33.66,178.12 c -4.91,0.36 -9.11,0 -10.46,-6.2 -1.23,-5.64 -8.7,-4.5 -11.11,-9.22 C 11.2,161 6,159.33 12.71,158 c 2.81,-0.56 5.3,-3.06 8.75,-2.62 2.31,0.3 4.78,-0.34 7,0.15 3.29,0.72 4.94,-6.18 8.22,-2 2,2.5 0,6.94 3.08,9.51 -3,1.88 -1.22,3.15 0.28,5 4.14,5.23 2.57,9.29 -3.59,10 a 23.91,23.91 0 0 1 -2.79,0.08 z"
         class="cls-1" />
      <path
         style="fill:#ffffff;fill-opacity:1"
         id="path272"
         d="m 1548.33,76.07 c 1.69,5.49 6.22,1.71 9.24,2.83 1.4,0.52 2.39,1.26 2.1,3 -0.08,0.45 0.13,1.09 -0.11,1.35 -1.53,1.63 -11.11,2.88 -12.52,1.42 -4,-4.16 -7.88,-4.27 -11.62,0.15 -2.58,3.05 -4.34,2.27 -8,0.74 -5.24,-2.19 -11.16,-2.78 -15.17,-7.38 a 4.07,4.07 0 0 1 -0.42,-3.69 c 1.17,-2.21 1.92,0.17 2.88,0.6 1.58,0.71 3.42,1 4.74,2.06 1.61,1.23 2.4,2.58 3.41,-0.58 2.87,-8.94 3,-9 11.75,-8.92 5.21,0.07 11.5,-2 13.69,5.62 -0.51,1.15 -2.81,0.65 -2.41,2.63 a 1.65,1.65 0 0 1 2.44,0.17 z"
         class="cls-1" />
      <path
         style="fill:#ffffff;fill-opacity:1"
         id="path274"
         d="m 298.26,104.13 c 0,0.47 0.18,1.24 0,1.36 -6.76,4 -4.56,13.83 -11.62,17.75 -4.36,2.42 -0.61,4.19 1,5.88 2.07,2.21 5.65,-0.75 7.55,2 a 3.52,3.52 0 0 1 0.22,2.65 c -0.18,0.61 -1.55,1.47 -1.58,1.43 -4.7,-4.83 -10.6,-1.87 -15.9,-2.35 -6.21,-0.56 -6.24,-0.19 -3.06,-6.41 a 10,10 0 0 1 0.77,-1.09 c 3.19,-4.57 -6.73,-8.87 -1.28,-11.9 3.67,-2 8.11,-1.28 10.05,-6.93 1.63,-4.75 8.33,-6.49 12.69,-4.66 0.55,0.28 0.76,1.49 1.16,2.27 z"
         class="cls-1" />
      <path
         style="fill:#ffffff;fill-opacity:1"
         id="path276"
         d="m 82.82,175.84 c -0.32,1.48 -1,2.52 -2.75,2.28 -2.94,-0.4 -5.07,1.87 -7.33,2.44 -3.41,0.86 -5.81,4.47 -10,3.32 -4.19,-1.15 -5.22,-6 -10.06,-6.41 -2.24,-0.17 -1.48,-5.74 -0.95,-6 5.7,-3 9.9,-8.86 17.82,-7.72 6.47,0.93 9.56,4.93 12.61,9.58 a 7.89,7.89 0 0 1 0.66,2.51 z"
         class="cls-1" />
      <path
         style="fill:#ffffff;fill-opacity:1"
         id="path278"
         d="m 1371.39,99 c -3.94,2.13 -8.1,-4.86 -12.84,-0.35 -1.4,1.33 -3,-1.53 -4.33,-2.64 -2.57,-2.07 0.05,-3.35 1.1,-3.87 3.58,-1.76 1.86,-8.19 7.73,-8.12 1.9,0 0.89,-3.23 1,-5 0.13,-2.25 -5.73,-5.93 2.38,-6 7.32,-0.08 4.47,2.48 3.54,6.46 -1.44,6.16 -0.18,7.57 6.7,7.76 2.94,0.08 5.89,5.16 9,0.27 0.24,-0.38 1.92,-0.27 2.64,0.14 2,1.12 0.33,2 -0.38,2.94 -2.22,3 -7.79,2.44 -8.16,7.75 -0.06,0.35 -5.18,0.38 -8.38,0.66 z"
         class="cls-1" />
      <path
         style="fill:#ffffff;fill-opacity:1"
         id="path280"
         d="m 1362.42,50.56 c 3.73,-2.72 6.57,3.79 10.59,1.07 3.56,-2.41 6.27,-0.06 9.74,1.35 3.79,1.54 4.24,1.15 1.64,4.56 -1.32,1.73 -1.11,5 1.07,7.57 1.28,1.51 -0.87,3.59 -1.95,2.34 -4.14,-4.77 -10.85,-0.92 -15.39,-5.32 -2.2,-2.13 -4.6,0.6 -3.5,4.51 0.3,1.08 2.85,1.73 1.53,2.83 -1.16,1 -4.21,1.53 -5,0.77 -3.1,-2.93 -5.64,-6.45 -8.38,-9.76 0.73,-0.48 1.43,-1.3 2.19,-1.36 2,-0.15 3.38,-0.46 3.52,-3 0.29,-5.61 0.43,-5.6 3.94,-5.56 z"
         class="cls-1" />
      <path
         style="fill:#ffffff;fill-opacity:1"
         id="path282"
         d="m 81,129.76 c -1.65,-0.34 -4.6,1.34 -6.89,-1.37 -1.95,-2.3 -4,-1.67 -5.77,0.41 -4.24,5.06 -5.75,-4 -9.75,-1.93 -0.82,0.42 -0.84,-1.79 0.26,-2.78 3.68,-3.3 8.56,-3.9 14.89,-2.8 3.39,0.59 3.23,-0.6 1.45,-3.59 -2.15,-3.61 -0.61,-4.86 3.18,-4.92 a 6.41,6.41 0 0 1 5.81,3 c 1,1.4 1,4 2.12,4.6 2.87,1.37 5.82,2.39 7.72,5.15 -4.02,1.52 -7.18,5.25 -13.02,4.23 z"
         class="cls-1" />
      <path
         style="fill:#ffffff;fill-opacity:1"
         id="path284"
         d="m 5033.12,89.88 c 1.84,1.77 1.55,2.34 0.52,3.12 -2.25,1.7 -1.32,5.17 -4,6.86 -3.41,2.17 -5.77,8.64 -9.45,7 -5,-2.3 -11.93,-1.83 -15.14,-8 -0.74,-1.43 -1.18,-2.2 0.32,-2.87 a 127.58,127.58 0 0 1 13.2,-5.6 c 3.76,-1.21 8.46,1.72 11.84,-2.38 0.1,-0.13 2.59,1.8 2.71,1.87 z"
         class="cls-1" />
      <path
         style="fill:#ffffff;fill-opacity:1"
         id="path286"
         d="m 2676.52,84.57 c 2.31,0 4.19,-0.84 6.36,-1.75 7.53,-3.18 13.4,1 13.48,8.72 a 43.67,43.67 0 0 0 0,5.66 c 0.6,4.19 -1.77,4.57 -5,4.41 -3.23,-0.16 -6.61,0 -9.91,-0.06 -2.11,-0.07 -5,0.92 -5,-2.92 0,-2.79 2.06,-2.23 3.75,-2.83 3.44,-1.21 0.58,-2.52 -0.35,-3.53 -0.93,-1.01 -1.59,-2.49 -3.38,-2 a 3.85,3.85 0 0 1 0.05,-5.7 z"
         class="cls-1" />
      <path
         style="fill:#ffffff;fill-opacity:1"
         id="path288"
         d="m 3428.43,78.91 c -7.56,1.9 -14.09,-1.56 -19.13,-8.52 a 10,10 0 0 1 -0.87,-2 11.89,11.89 0 0 1 2.46,-0.82 c 4.4,-0.48 8.69,0.58 13.07,-2.58 3.37,-2.43 15.84,7.05 17.2,11.58 0.71,2.36 -0.72,2.2 -1.71,2.24 -3.27,0.19 -6.55,0.1 -11.02,0.1 z"
         class="cls-1" />
      <path
         style="fill:#ffffff;fill-opacity:1"
         id="path290"
         d="m 3597.09,78.91 c 1.87,0 3.75,-0.06 5.62,0 4,0.15 4.77,2 2.55,5.23 -0.76,1.09 -1.82,1.8 -1.87,3.47 -0.27,8.18 -0.34,8.2 -7,8.29 -2.81,0 -5.72,0.45 -8.39,-0.16 -1.55,-0.36 -3.64,-2.29 -3.84,-3.74 -0.35,-2.55 2.55,-1.23 3.81,-2 1.26,-0.77 1.92,-2.06 3,-2.88 1.08,-0.82 0.73,-1.1 0.28,-2.07 -2.88,-6.09 -2.79,-6.13 4.37,-6.16 z"
         class="cls-1" />
      <path
         style="fill:#ffffff;fill-opacity:1"
         id="path292"
         d="m 1452,61.95 c -0.07,-1.38 0.21,-2.92 1.91,-2.31 10.13,3.59 20.22,3.85 30.24,-0.18 3.58,-1.44 5,1.29 6.73,3.17 1.73,1.88 0.81,4.8 -1.73,4.91 -3.73,0.16 -7.46,0 -11.2,0 -3.1,0 -6.74,-1 -6.45,4.43 0.07,1.34 -2.18,1.31 -3.54,1.21 -3.11,-0.23 -2.8,-6.66 -8.15,-3.91 -3.18,1.63 -4.31,-3.48 -6.77,-5 -0.63,-0.39 -0.75,-1.53 -1.04,-2.32 z"
         class="cls-1" />
      <path
         style="fill:#ffffff;fill-opacity:1"
         id="path294"
         d="m 2069.91,112.92 c -2.33,0 -4.68,0.17 -7,0 -2.32,-0.17 -6.51,0.73 -6.3,-0.77 0.81,-5.73 -8.23,-3.74 -6.71,-9.84 1.15,-4.59 -3,-3.29 -5.51,-3.51 1,-3.31 3.68,-7 6.4,-5.34 4,2.48 11.33,2.35 10.68,10.2 -0.33,4 2.2,5.17 5,2.61 2.8,-2.56 6.06,-1.37 9.1,-1.79 1.52,3.12 -1.15,4.15 -2.83,5.67 q 0.11,2.85 -2.83,2.77 z"
         class="cls-1" />
      <path
         style="fill:#ffffff;fill-opacity:1"
         id="path296"
         d="m 125.48,121.43 a 22.85,22.85 0 0 1 14.52,2.83 c 0.75,0.46 1.51,0.89 2.26,1.33 a 10.59,10.59 0 0 1 -2,1.47 c -0.8,0.34 -2,0.06 -2.57,0.55 -8.54,7 -16.84,6.92 -25.15,-0.46 -1,-0.86 -4.2,1.13 -3.44,-2 a 5.84,5.84 0 0 1 4,-3.55 c 3.62,-0.52 7.42,-0.17 12.38,-0.17 z"
         class="cls-1" />
      <path
         style="fill:#ffffff;fill-opacity:1"
         id="path298"
         d="m 1974.27,135.6 c 3.26,0 6.53,0.14 9.79,0 3.26,-0.14 3.77,1.44 3.72,4.22 0,2.6 -0.26,4.8 -3.56,4.29 -4.27,-0.66 -7.5,5.43 -11.26,2.66 -3.76,-2.77 -7.58,-2.3 -11.56,-2.7 -2.46,-0.25 -2,-2.52 -2,-4.32 0,-1.8 -0.3,-4 2.34,-4.06 4.13,-0.2 8.33,-0.09 12.53,-0.09 z"
         class="cls-1" />
      <path
         style="fill:#ffffff;fill-opacity:1"
         id="path300"
         d="m 165.1,124.26 c 2.32,0 4.74,0.41 6.94,-0.09 4,-0.91 7.91,0.67 9.65,3.16 1.44,2.06 -2.91,4 -4.61,6.06 -2.88,3.48 -6.93,3.37 -9.32,0.38 -3,-3.75 -5.14,-2.93 -8.58,-1.15 -2.13,1.1 -8.25,-4.34 -8,-6.6 0.19,-1.6 1.37,-1.8 2.75,-1.78 3.75,0.06 7.46,0.02 11.17,0.02 z"
         class="cls-1" />
      <path
         style="fill:#ffffff;fill-opacity:1"
         id="path302"
         d="m 2148.37,132.77 c 3.88,-1.34 7.11,2.88 11.92,0.54 2.6,-1.26 7.83,3.32 12.58,2.37 0.45,-0.09 1.14,1 1.71,1.53 -0.66,0.66 -1.36,1.29 -2,2 -1.64,1.86 -3.37,3.23 -5.79,1.18 -6.32,-5.36 -10.5,0.28 -14.6,3.37 -3.78,2.85 -5.32,3.26 -7.62,0.1 -1.63,-2.25 -0.6,-4.44 -1,-6.62 -0.66,-3.9 1.34,-4.97 4.8,-4.47 z"
         class="cls-1" />
      <path
         style="fill:#ffffff;fill-opacity:1"
         id="path304"
         d="m 2698.36,50.56 c 6.52,-2.05 12.31,4.7 19.4,3.05 0.24,-0.06 1.1,1.39 1.21,2.19 0.11,0.8 -0.21,2.32 -0.64,2.43 -5.66,1.53 -10.38,7 -17.59,1.7 -3,-2.17 -5.73,-5.79 -9.87,-6.49 -1.32,-0.22 -2.69,-0.17 -2.46,-1.89 0.06,-0.43 1.49,-0.9 2.31,-0.95 2.35,-0.12 4.71,-0.04 7.64,-0.04 z"
         class="cls-1" />
      <path
         style="fill:#ffffff;fill-opacity:1"
         id="path306"
         d="m 2336.36,127.09 c -2.15,-0.43 -5.43,1.41 -5.67,-2.83 5.44,-1.08 11.6,-0.85 11.57,-9.3 0,-2.16 2.55,-4.84 5.75,-4.83 1.73,0 4.11,-0.92 5,1.17 1,2.33 0.06,3.45 -2.75,4.7 -5.36,2.39 -5.35,3.16 -1.43,7.83 2.37,2.82 2,4.51 -0.39,6.88 -2.7,2.71 -5.53,2.63 -8.6,1.24 -0.76,-0.34 -0.36,-1.21 0.67,-1.94 1.3,-0.91 1.63,-2.2 0,-2.81 -1.22,-0.47 -2.75,-0.11 -4.15,-0.11 z"
         class="cls-1" />
      <path
         style="fill:#ffffff;fill-opacity:1"
         id="path308"
         d="m 1426.43,101.33 c 0.31,2.63 -2,3.2 -3,4.67 -1.31,1.92 -2.29,0.4 -2.95,-0.51 -2.7,-3.75 -8.75,-4 -9.82,-9.4 -4,6.86 -7.77,-1.59 -11.84,-0.26 -2.72,0.89 -3.89,-1.93 -5.58,-3.37 a 4.2,4.2 0 0 1 -0.65,-1 c 0.77,-0.41 1.74,-1.36 2.27,-1.16 5.37,2.06 10.61,5.65 16.09,0 a 2.68,2.68 0 0 1 3.7,0.9 c 2.09,4 7.14,3.81 9.79,7 0.86,1.01 2.63,1.53 1.99,3.13 z"
         class="cls-1" />
      <path
         style="fill:#ffffff;fill-opacity:1"
         id="path310"
         d="m 395.69,118.21 c -2.2,-1.15 0.33,-4.94 -3.27,-5.35 -2.32,-0.27 -6.51,1.77 -6.11,-2.91 0.27,-3.24 2.7,-5.72 6.65,-5.54 4.73,0.23 5.94,-1.24 3.28,-5.69 -1.15,-1.92 3.75,-8.05 5.88,-8.07 1.37,0 4.59,5.57 3.68,6.76 -2.06,2.7 -6.71,4.33 -3.24,9 -3,2.92 -6.49,5.53 -5.18,10.58 0.07,0.25 -1.11,0.82 -1.69,1.22 z"
         class="cls-1" />
      <path
         style="fill:#ffffff;fill-opacity:1"
         id="path312"
         d="m 3728.65,81.74 c -2.83,0 -5.67,-0.08 -8.5,0 -1.55,0.06 -2.86,-0.38 -3.24,-1.82 A 4,4 0 0 1 3718,76.2 c 3.56,-4 8.13,-8.64 12.92,-5.37 3.5,2.39 7.51,5.11 10.47,8.59 1.78,2.1 -0.52,2.21 -1.45,2.25 -3.73,0.17 -7.52,0.07 -11.29,0.07 z"
         class="cls-1" />
      <path
         style="fill:#ffffff;fill-opacity:1"
         id="path314"
         d="m 1928.17,140.51 c 0.13,-4.51 2.2,-6.5 5.94,-4.73 3.3,1.56 6.4,3 10.06,3.18 0.37,0 0.79,1.48 1,2.32 0.4,1.77 -0.77,2.4 -2.21,2.84 -1.25,0.38 -4.3,-0.62 -2.22,2.55 0.7,1.07 2.18,2 0.27,3 -4.52,2.24 -7.44,-2.42 -11.44,-3.06 -2.57,-0.42 -1.01,-4.1 -1.4,-6.1 z"
         class="cls-1" />
      <path
         style="fill:#ffffff;fill-opacity:1"
         id="path316"
         d="m 501.55,112.92 c -3.14,-0.17 -6.09,0.39 -9,-2.3 -1.73,-1.58 -5.86,-1.19 -3.93,-5 a 7.39,7.39 0 0 1 8.1,-4.19 c 2.28,0.33 3,2.06 4.38,3.12 1.38,1.06 2.27,2.72 4.54,2.77 2.65,0.06 5.61,-1.2 7.94,1.18 -3.06,1.47 -6.08,3 -9.19,4.35 -0.83,0.36 -1.9,0.07 -2.84,0.07 z"
         class="cls-1" />
      <path
         style="fill:#ffffff;fill-opacity:1"
         id="path318"
         d="m 520.59,33 c -6.57,1.83 -10.26,-1.37 -14.39,-2.74 -1.7,-0.56 -1.31,-2.6 -0.9,-3.69 0.62,-1.7 1.8,-1.06 2.86,0 2.72,2.78 6.17,0.92 9.27,1.2 1,0.09 2.36,-0.72 0.82,-2.54 -3.42,-4 1.15,-3.32 2.31,-2.86 2.9,1.13 3.88,4.87 7.51,5.61 5.35,1.09 0.62,2.88 -0.11,4 -2.4,3.52 -6.21,0.16 -7.37,1.02 z"
         class="cls-1" />
      <path
         style="fill:#ffffff;fill-opacity:1"
         id="path320"
         d="m 5229.13,42.06 a 59.09,59.09 0 0 1 8.44,0.12 c 1.37,0.2 2.08,2.36 1.37,3.42 a 57.7,57.7 0 0 1 -5.43,6.23 c -1.88,2.08 -3.79,2.25 -5.82,0.15 -2.29,-2.36 -4.67,-4.63 -6.95,-7 a 8.58,8.58 0 0 1 -1.08,-2 8.61,8.61 0 0 1 2.43,-0.91 c 2.34,-0.07 4.7,-0.01 7.04,-0.01 z"
         class="cls-1" />
      <path
         style="fill:#ffffff;fill-opacity:1"
         id="path322"
         d="m 457,152.44 c -0.34,3.07 -4,6.14 -4.84,5.55 -5.62,-4.06 -12.7,3.94 -17.81,-2.46 -0.48,-0.61 -2.6,-0.25 -2.37,-1.93 0.1,-0.74 1.32,-1.26 1.87,-2 1.24,-1.7 3,-1.57 4.84,-1.93 5.79,-1.13 11.33,7 17.16,0.39 z"
         class="cls-1" />
      <path
         style="fill:#ffffff;fill-opacity:1"
         id="path324"
         d="m 3302,64.75 c 4.87,-0.61 4.2,3 3.7,5.5 -1,5 -6.37,7.53 -10.45,5.09 -2.65,-1.58 -3.81,-5.2 -7.88,-5.13 -1.48,0 -0.9,-2.79 0.2,-2.49 5.43,1.46 9.08,-5 14.43,-2.97 z"
         class="cls-1" />
      <path
         style="fill:#ffffff;fill-opacity:1"
         id="path326"
         d="m 3209.44,67.57 a 8.15,8.15 0 0 0 -1.41,0 c -4.06,0.72 -7.33,-0.45 -9.64,-4 3.27,0.15 4.79,-7.29 9.29,-2.18 0.06,0.07 1.7,-0.81 1.67,-1.18 -0.23,-3 0.95,-4.63 3.93,-3.94 2.32,0.54 1.8,2.8 1.83,4.59 0,0.9 -0.17,2.18 0.33,2.64 3.48,3.23 2.43,4.26 -1.77,4 -1.4,0.01 -2.82,0.07 -4.23,0.07 z"
         class="cls-1" />
      <path
         style="fill:#ffffff;fill-opacity:1"
         id="path328"
         d="m 3071,53.4 c -2.2,-0.18 -4.78,0.81 -6.29,-1.64 -0.71,-1.16 -3.8,-1.64 -1.36,-3.94 1.36,-1.28 2.73,-2.56 4,-4 2.46,-2.83 4.64,-2.27 6.8,0.34 0.59,0.72 1.65,1.22 1.9,2 0.46,1.47 4.17,1.39 2,3.9 a 15.83,15.83 0 0 1 -4.24,3.24 c -0.76,0.42 -1.88,0.09 -2.81,0.1 z"
         class="cls-1" />
      <path
         style="fill:#ffffff;fill-opacity:1"
         id="path330"
         d="m 1797.65,137.15 c -1.78,1.92 -3.67,3.06 -1.77,6.84 3.06,6.09 2.38,6.45 -5.06,5.77 -3.14,-0.29 -6.4,0.83 -9.43,-0.79 a 13.36,13.36 0 0 1 7.92,-4.77 c 5.36,-1.32 2,-5.25 2.71,-7.9 0.48,-1.8 0.21,-3.76 2.92,-3.55 -0.42,2.31 2.06,2.77 2.71,4.4 z"
         class="cls-1" />
      <path
         style="fill:#ffffff;fill-opacity:1"
         id="path332"
         d="m 1401.38,57.11 c 1.33,-1.22 2.56,-3.25 4.1,-3.52 2,-0.36 4.73,-1.27 6.5,1 2.64,3.36 3.35,-1.1 5.17,-1.23 2.2,-0.15 3.13,1.68 4.68,2.35 2,0.88 4.38,1 5.75,3.1 0.44,0.68 0.93,1.33 1.4,2 -0.78,0.38 -1.93,1.29 -2.29,1 -7.15,-4.81 -15.18,-2.06 -22.79,-2.72 -1.35,-0.09 -2.52,-0.14 -2.52,-1.98 z"
         class="cls-1" />
      <path
         style="fill:#ffffff;fill-opacity:1"
         id="path334"
         d="m 3852.9,90.24 c 4.74,-0.95 0.92,6.42 5.56,5.7 2.43,-0.37 3.08,1.29 2.92,3.32 -0.21,2.55 -2.23,2.71 -3.94,2.26 -4.31,-1.14 -9.72,2.84 -13,-2.77 0.91,-3.27 2.77,-5.37 6.4,-5.72 a 2.19,2.19 0 0 0 2.06,-2.79 z"
         class="cls-1" />
      <path
         style="fill:#ffffff;fill-opacity:1"
         id="path336"
         d="m 5425.56,101.59 a 10.33,10.33 0 0 1 -1.39,0 c -2.17,-0.31 -5.69,1.08 -6,-1.34 -0.22,-1.48 2.59,-4.45 5.92,-4.36 5.57,0.15 11.14,0 16.71,0.1 0.76,0 1.5,0.81 2.25,1.24 -0.64,0.51 -1.27,1 -1.91,1.54 -4.72,3.66 -10.24,2.72 -15.58,2.82 z"
         class="cls-1" />
      <path
         style="fill:#ffffff;fill-opacity:1"
         id="path338"
         d="m 1857.31,98.75 c -3.93,0.84 -8.05,-1.4 -12.07,1.73 -1.88,1.47 -5.13,-3.83 -8.86,0.34 -3.14,3.51 -5.8,-2.6 -9.38,-3 -1.6,-0.17 0.82,-2.1 1.56,-1.82 4.3,1.65 7.85,-3.28 12.22,-1.11 4.37,2.17 9.13,0.55 13.69,1 2.98,-1.06 3.47,0.33 2.84,2.86 z"
         class="cls-1" />
      <path
         style="fill:#ffffff;fill-opacity:1"
         id="path340"
         d="m 1759.52,10.87 a 33.23,33.23 0 0 1 -4.24,0 c -1.76,-0.23 -5,1 -5,-1 0,-3.45 3.5,-1.91 5.19,-1.69 a 7.13,7.13 0 0 0 8,-4.4 c 1.13,-3.08 0.86,-5.8 4.23,-1.73 1.71,2.06 5.38,3.32 4.48,6.54 -1.31,4.7 -5.55,1.48 -8.38,2.22 a 17.19,17.19 0 0 1 -4.28,0.06 z"
         class="cls-1" />
      <path
         style="fill:#ffffff;fill-opacity:1"
         id="path342"
         d="m 1377,124.46 c 2.1,1.84 0.16,2.25 -0.87,2.6 -8.35,2.85 -14.39,2.84 -21.62,0 a 2.72,2.72 0 0 1 -1.8,-3.24 c 0.58,-3.31 1.63,-1.29 3.34,-0.68 5.23,1.86 11.26,2.57 15.89,-0.18 3.66,-2.14 3.58,1.04 5.06,1.5 z"
         class="cls-1" />
      <path
         style="fill:#ffffff;fill-opacity:1"
         id="path344"
         d="m 2791.11,118.59 c -2.5,0 -3.92,0.06 -5.33,0 -0.37,0 -1,-0.66 -1,-0.86 0.19,-0.68 0.47,-1.63 1,-1.88 6,-2.85 11.4,-7.78 18.86,-5.69 0.82,0.23 2,0.8 2.16,1.41 0.41,1.82 0.46,0.67 -0.92,0.79 -5.98,0.49 -8.36,9.95 -14.77,6.23 z"
         class="cls-1" />
      <path
         style="fill:#ffffff;fill-opacity:1"
         id="path346"
         d="m 1269.8,86.8 c -2.47,1.32 -2.05,3.73 -2.12,6.05 -0.14,4.77 -4.18,3.47 -6.14,2.88 -5.37,-1.62 0.39,-2.76 0.59,-4.23 0.5,-3.59 -2.5,-4.73 -4.22,-6.74 -0.95,-1.11 -1.76,-2 -0.11,-3 1.45,-0.86 11.92,2.51 12.41,3.94 0.09,0.3 -0.21,0.66 -0.41,1.1 z"
         class="cls-1" />
      <path
         style="fill:#ffffff;fill-opacity:1"
         id="path348"
         d="m 1704.24,133.28 a 2.45,2.45 0 0 1 -2.66,2.35 c -4.83,0.12 -9.92,-1.06 -14.1,2.73 -0.33,0.3 -1.6,-0.36 -2.38,-0.7 a 1,1 0 0 1 -0.38,-0.93 c 2.19,-5.28 13.75,-8.95 18.89,-5.9 0.51,0.31 0.39,1.61 0.63,2.45 z"
         class="cls-1" />
      <path
         style="fill:#ffffff;fill-opacity:1"
         id="path350"
         d="m 1170.09,61.72 c 0.93,0.27 2.74,0.25 3.36,1.1 1,1.38 -1,2 -1.74,2.89 -0.87,1.1 -1.83,2.65 -3,2.91 -4,0.91 -1.29,10.48 -7.66,6.69 -4.87,-2.9 3.11,-5.38 2,-9.59 -1.46,-5.83 4.02,-3.09 7.04,-4 z"
         class="cls-1" />
      <path
         style="fill:#ffffff;fill-opacity:1"
         id="path352"
         d="m 2862.19,73.24 c -6.78,0 -9.33,-1.64 -9.84,-6.75 -0.22,-2.21 -0.32,-5.83 0.83,-6.48 2.23,-1.26 3,2.44 4.85,3.38 2.85,1.42 2.06,5 4.06,6.78 1,0.93 4.06,-0.68 3.79,2.06 -0.17,1.67 -2.38,0.82 -3.69,1.01 z"
         class="cls-1" />
      <path
         style="fill:#ffffff;fill-opacity:1"
         id="path354"
         d="m 3549.58,81.76 c -4.67,1.35 -7.6,-4.77 -12.61,-3 -0.9,0.32 -1.33,-1.3 -0.25,-2.69 1.92,-2.48 4.4,-3.69 7.11,-2.7 a 26.06,26.06 0 0 1 8.45,5 c 0.93,0.86 0,3.54 -2.7,3.39 z"
         class="cls-1" />
      <path
         style="fill:#ffffff;fill-opacity:1"
         id="path356"
         d="m 952,104.62 c -5.41,-0.81 -10.57,0.88 -15.49,-1.16 4.66,-3.91 10.15,-1.6 15.19,-1.7 5.94,-0.12 12,-1.45 17.9,0.78 -5.6,4.46 -12.09,0.35 -17.6,2.08 z"
         class="cls-1" />
      <path
         style="fill:#ffffff;fill-opacity:1"
         id="path358"
         d="m 1908.44,135 c -1.93,3.3 -2.27,7.51 -5.47,10.22 -0.88,0.75 -1.75,2.44 -2.91,0.45 -0.41,-0.7 -0.59,-2.23 -0.17,-2.62 3.81,-3.5 2.14,-4.49 -1.93,-5.19 -1.63,-0.28 -0.84,-2.38 -1,-3.69 -0.26,-2.81 1.88,-1.21 2.8,-1.31 a 33.62,33.62 0 0 1 7,0 c 0.6,0.06 1.06,1.29 1.68,2.14 z"
         class="cls-1" />
      <path
         style="fill:#ffffff;fill-opacity:1"
         id="path360"
         d="m 1065.67,36.39 c -2.45,-0.56 -5.65,1.4 -7.66,-1.47 -0.78,-1.11 -4.21,-1.63 -1.66,-3.85 1,-0.91 1.76,-4.37 3.8,-2.14 2.43,2.66 5.35,1 7.74,2 1.61,0.69 3.86,2.6 3.8,3.87 -0.1,2.19 -2.73,1.49 -4.44,1.59 -0.46,0.02 -0.93,0 -1.58,0 z"
         class="cls-1" />
      <path
         style="fill:#ffffff;fill-opacity:1"
         id="path362"
         d="m 2447.66,39.22 c 2.78,0 5.57,-0.1 8.34,0.06 0.76,0 1.48,0.86 2.21,1.32 -0.7,0.49 -1.38,1.35 -2.11,1.39 -4,0.26 -7.86,-0.42 -11.52,2.67 -1.59,1.34 -5.38,0.75 -7.18,-2.17 a 15.56,15.56 0 0 0 -1.72,-2 c 0.75,-0.43 1.48,-1.21 2.24,-1.24 3.25,-0.11 6.5,-0.03 9.74,-0.03 z"
         class="cls-1" />
      <path
         style="fill:#ffffff;fill-opacity:1"
         id="path364"
         d="m 737.09,120.38 c -0.3,1.88 -5.49,4.66 -6.75,3.6 -2.13,-1.8 -3.92,-4 -6,-5.84 -1,-0.88 -1,-1.22 0.14,-2.05 a 26.93,26.93 0 0 0 3,-2.93 c 2.28,2.84 6.83,2 8.73,5.44 0.34,0.62 0.63,1.28 0.88,1.78 z"
         class="cls-1" />
      <path
         style="fill:#ffffff;fill-opacity:1"
         id="path366"
         d="m 1213.85,73.94 c -0.27,-3.14 2.19,-4.22 3.75,-5.75 1.12,-1.1 2,-3.75 3.84,-2.72 1.84,1.03 1.24,3 -0.21,4.68 -3,3.39 -3.12,5.63 2.33,6 1.46,0.11 1.79,2 0.16,2.66 -3.32,1.46 -9.83,-2.11 -9.87,-4.87 z"
         class="cls-1" />
      <path
         style="fill:#ffffff;fill-opacity:1"
         id="path368"
         d="m 2157.69,115.83 c -2.7,-0.07 -3.46,-2.82 -5.33,-4.07 0.5,-0.67 1,-1.38 1.51,-2 1.56,-1.74 3.16,-3.55 5.82,-2 1.15,0.68 2.1,1.91 3.32,2.22 1.22,0.31 3.06,0.35 2.86,1.75 -0.16,1.12 -1.93,1.95 -2.81,3 -1.53,1.93 -3.55,0.59 -5.37,1.1 z"
         class="cls-1" />
      <path
         style="fill:#ffffff;fill-opacity:1"
         id="path370"
         d="m 3955.68,76.07 a 51.26,51.26 0 0 1 5.56,0.06 c 0.77,0.08 1.47,0.88 2.2,1.35 a 15.43,15.43 0 0 1 -2.21,1.4 c -4.07,1.72 -8,4 -12.73,2.83 a 2.59,2.59 0 0 1 -2.13,-2.92 c 0,-1.72 0.86,-2.59 2.34,-2.68 2.29,-0.11 4.65,-0.04 6.97,-0.04 z"
         class="cls-1" />
      <path
         style="fill:#ffffff;fill-opacity:1"
         id="path372"
         d="m 1857.31,98.75 q 0.11,-2.94 -2.83,-2.83 c 4.32,-6.2 10.49,-1.8 15.74,-2.5 1.52,-0.2 0.45,1.71 -0.31,2.71 -3.48,4.48 -8.37,1.94 -12.6,2.62 z"
         class="cls-1" />
      <path
         style="fill:#ffffff;fill-opacity:1"
         id="path374"
         d="m 3351.2,30.72 a 5.12,5.12 0 0 0 -1.38,0 c -4.94,1.44 -8.39,-2.23 -12.21,-4 -1.72,-0.8 4.76,-2.59 10.19,-0.74 0.79,0.27 1.24,1.62 2,1.8 a 16.11,16.11 0 0 0 4.14,0.07 c 1.38,0 2.67,0.16 2.31,1.89 -0.1,0.46 -1.46,0.78 -2.29,0.92 a 16.23,16.23 0 0 1 -2.76,0.06 z"
         class="cls-1" />
      <path
         style="fill:#ffffff;fill-opacity:1"
         id="path376"
         d="m 1548.33,76.07 c -3,0.46 -4.94,4.1 -8.62,2.88 -1.92,-0.64 -5.11,1.29 -5.48,-2.3 -0.5,-4.74 3.29,-3.24 5.72,-3.38 2.79,-0.16 5.59,0 8.38,0 z"
         class="cls-1" />
      <path
         style="fill:#ffffff;fill-opacity:1"
         id="path378"
         d="m 1548.33,104.42 c -2.24,4.42 -6.78,-1.24 -9.54,2.25 -1.17,1.47 -3.63,0.94 -4.52,-1 -0.49,-1.06 -0.62,-3 1,-3.7 1.43,-0.65 1.91,-4.18 3.87,-2.26 2.89,2.83 6.11,1.46 9.2,1.88 z"
         class="cls-1" />
      <path
         style="fill:#ffffff;fill-opacity:1"
         id="path380"
         d="m 2131.84,125.25 c 0,0.33 0,0.85 -0.15,1 -4.81,2.89 -4.58,10 -10.1,12.16 a 2.8,2.8 0 0 1 -2.51,-0.49 c -1.26,-1.39 -2,0.08 -0.81,-0.79 4.57,-3.38 5.31,-9.55 9.82,-12.77 0.62,-0.44 1.84,-0.15 2.75,0 0.38,0 0.67,0.56 1,0.89 z"
         class="cls-1" />
      <path
         style="fill:#ffffff;fill-opacity:1"
         id="path382"
         d="m 827.58,98.72 c 2,0.05 4,0.29 3.53,2.84 -0.65,3.32 -2.76,6 -6.27,5.48 -1.8,-0.25 -3.31,-2.67 -4.95,-4.1 2.25,-2.06 3.93,-5.19 7.69,-4.22 z"
         class="cls-1" />
      <path
         style="fill:#ffffff;fill-opacity:1"
         id="path384"
         d="m 289.48,141.09 c 2.79,1.45 5.83,2.93 8.72,4.66 0.39,0.23 0.25,1.82 -0.07,2.61 a 2.37,2.37 0 0 1 -1.8,0.78 c -3.73,-4.28 -8.65,-1.36 -12.9,-2.25 a 7.55,7.55 0 0 1 -2.18,-1.37 c 0.32,-0.32 0.68,-1 1,-0.93 2.97,0.3 4.54,-2.31 7.23,-3.5 z"
         class="cls-1" />
      <path
         style="fill:#ffffff;fill-opacity:1"
         id="path386"
         d="m 2388.06,121.43 c 0.72,0.47 1.75,0.79 2.08,1.45 a 3.21,3.21 0 0 1 0,2.67 c -1.48,2.35 -4.87,1.37 -6.69,3.8 -1.08,1.44 -3.67,0.94 -4.47,-0.9 -0.67,-1.54 -0.4,-4.31 1.95,-4 3.24,0.34 4,-3.98 7.13,-3.02 z"
         class="cls-1" />
      <path
         style="fill:#ffffff;fill-opacity:1"
         id="path388"
         d="m 3075.41,112.92 a 24,24 0 0 1 -4.14,-0.05 19.26,19.26 0 0 1 -3.57,-1.36 c 1.72,-1.42 3.36,-3.9 5.17,-4 3.35,-0.23 5.8,4.24 9.9,2.69 0.36,-0.14 1.18,1 1.79,1.48 -0.75,0.42 -1.47,1.16 -2.24,1.21 -2.32,0.11 -4.61,0.03 -6.91,0.03 z"
         class="cls-1" />
      <path
         style="fill:#ffffff;fill-opacity:1"
         id="path390"
         d="m 326.29,141.27 a 19.48,19.48 0 0 1 3,0 14,14 0 0 1 2.46,0.88 9.38,9.38 0 0 1 -1,2 c -0.92,1.07 -2,2 -3,3 -1.6,1.67 -3.26,3.78 -5.8,2.1 -2.37,-1.57 2.86,-3.12 0,-6.3 -1.9,-2.16 3.05,-0.7 4.34,-1.68 z"
         class="cls-1" />
      <path
         style="fill:#ffffff;fill-opacity:1"
         id="path392"
         d="m 1854.47,161.82 c -0.34,1.65 -5.33,3.2 -7,2.12 -2.34,-1.56 -1.08,-5.27 -3.88,-6.58 0.32,-0.64 0.56,-1.77 1,-1.84 3.84,-0.64 5.83,3.54 9.42,3.84 0.23,0.02 0.32,1.64 0.46,2.46 z"
         class="cls-1" />
      <path
         style="fill:#ffffff;fill-opacity:1"
         id="path394"
         d="m 4265.42,98.75 c 1.86,0 3.71,0 5.57,0 0.34,0 1,0.71 0.93,0.91 -0.22,0.67 -0.6,1.73 -1.07,1.81 -4.72,0.85 -10.18,-2.12 -14.09,2.82 a 7.28,7.28 0 0 1 -1.26,-2.24 c -0.12,-0.8 0.05,-2.13 0.57,-2.45 2.93,-1.76 6.22,-0.5 9.35,-0.85 z"
         class="cls-1" />
      <path
         style="fill:#ffffff;fill-opacity:1"
         id="path396"
         d="m 2128.94,152.61 c -1.58,0 -2.49,0 -3.4,0 -1.75,0 -3.72,0.4 -4.55,-1.71 a 3.1,3.1 0 0 1 0.13,-2.61 c 1.82,-2.17 3.75,-1.76 5.62,0.16 a 4.46,4.46 0 0 0 2.18,1.28 c 2.1,0.39 6.1,-0.62 5.85,1.48 -0.45,3.79 -4.51,-0.5 -5.83,1.4 z"
         class="cls-1" />
      <path
         style="fill:#ffffff;fill-opacity:1"
         id="path398"
         d="m 2099.76,166.71 c -0.51,-0.69 -1.38,-1.35 -1.44,-2.06 -0.22,-2.77 -0.39,-5.48 2.36,-7.55 1.12,-0.85 -0.27,-3.7 2.09,-4.13 0.53,-0.1 1.23,1.36 2,1.87 3.85,2.56 0.23,4.16 -1.09,4.89 -2.97,1.62 -1.68,5.27 -3.92,6.98 z"
         class="cls-1" />
      <path
         style="fill:#ffffff;fill-opacity:1"
         id="path400"
         d="m 2513.15,45.19 c 1.75,0.08 4.16,4.2 3.52,5 a 36.72,36.72 0 0 1 -3,3 c -1.9,-4.71 -7,-1.13 -9.6,-3.74 -0.1,-0.09 0.71,-1.64 1.18,-1.69 3.06,-0.3 6.59,1.24 7.9,-2.57 z"
         class="cls-1" />
      <path
         style="fill:#ffffff;fill-opacity:1"
         id="path402"
         d="m 3427.81,56.23 c 1.38,0 3,-0.46 4.07,0.14 a 4.18,4.18 0 0 1 1.4,3.41 c -0.23,2.5 -2.41,1.86 -4.14,2.19 -3.53,0.66 -4.68,-2.3 -6.65,-4 -0.06,-0.05 0.68,-1.56 1.19,-1.66 a 23.28,23.28 0 0 1 4.13,-0.08 z"
         class="cls-1" />
      <path
         style="fill:#ffffff;fill-opacity:1"
         id="path404"
         d="m 1912.86,101.58 c -2.1,0 -4,0.31 -5.78,-0.1 -1.38,-0.32 -1.83,-1.9 -1.56,-3.34 a 2.51,2.51 0 0 1 2.74,-2.3 c 2.32,-0.09 2.86,2.07 4.39,2.88 2,1.07 6.12,-2.12 6.17,1.95 0.03,1.93 -4.06,0.33 -5.96,0.91 z"
         class="cls-1" />
      <path
         style="fill:#ffffff;fill-opacity:1"
         id="path406"
         d="m 2072.74,110.09 2.83,-5.67 c -0.19,-2.54 1.51,-3.06 3.41,-2.79 3.44,0.49 2,3.33 2.24,5.3 0.24,2.16 -0.81,3.26 -3.06,3.17 -1.8,-0.1 -3.61,-0.01 -5.42,-0.01 z"
         class="cls-1" />
      <path
         style="fill:#ffffff;fill-opacity:1"
         id="path408"
         d="m 4716.81,101.58 c -0.92,0 -1.85,0 -2.77,0 -1.75,-0.09 -3.77,0.57 -4.89,-1.37 -0.14,-0.24 1.16,-1.19 1.65,-1.91 1.72,-2.56 2.85,-1.37 5,-0.13 2.15,1.24 5.31,0.37 8,0.64 0.73,0.07 1.38,0.91 2.07,1.4 -0.73,0.46 -1.44,1.25 -2.2,1.31 -2.24,0.17 -4.56,0.06 -6.86,0.06 z"
         class="cls-1" />
      <path
         style="fill:#ffffff;fill-opacity:1"
         id="path410"
         d="m 1755.4,150.06 c -0.29,0.78 -0.4,1.19 -0.59,1.56 -0.63,1.28 -1.19,1.23 -1.94,0 -1.85,-2.89 -3.84,-5.68 -5.62,-8.61 -0.17,-0.28 0.55,-1.52 1.08,-1.72 0.79,-0.3 2.37,-0.41 2.6,0 1.68,2.96 3.07,6.01 4.47,8.77 z"
         class="cls-1" />
      <path
         style="fill:#ffffff;fill-opacity:1"
         id="path412"
         d="m 2325.76,59.06 c -3,0 -5.38,0.09 -7.7,-0.09 -0.39,0 -0.8,-1.15 -1,-1.83 -0.06,-0.2 0.6,-0.87 1,-0.88 a 33.93,33.93 0 0 1 7,0 c 2.7,0.48 7.2,-2.14 7.6,1.86 0.13,2.01 -5.02,0.02 -6.9,0.94 z"
         class="cls-1" />
      <path
         style="fill:#ffffff;fill-opacity:1"
         id="path414"
         d="m 2379,135.59 c 2.65,0.39 7.82,-0.44 7.55,0.91 -0.8,4 -5,1.61 -7.75,1.78 -2.75,0.17 -7.79,0.9 -7.51,-0.77 0.58,-3.65 4.96,-1.3 7.71,-1.92 z"
         class="cls-1" />
      <path
         style="fill:#ffffff;fill-opacity:1"
         id="path416"
         d="m 39.94,139.56 c -0.39,0.54 -0.77,1.58 -1.26,1.63 -3.19,0.36 -6.21,0.38 -8.46,-2.77 -1,-1.43 -1,-2.23 0.37,-2.78 2.49,-1 8.88,1.74 9.35,3.92 z"
         class="cls-1" />
      <path
         style="fill:#ffffff;fill-opacity:1"
         id="path418"
         d="m 2690.83,40.15 c -0.24,5.63 -3.05,4.59 -5.11,4.72 -2.06,0.13 -3.64,-0.17 -3.55,-2.84 0.13,-3.8 3,-2.62 5,-2.78 2,-0.16 3.71,0.2 3.66,0.9 z"
         class="cls-1" />
      <path
         style="fill:#ffffff;fill-opacity:1"
         id="path420"
         d="m 444.28,141.13 c -1.4,0.1 -1.26,3.91 -3.76,2 -1.86,-1.42 -3.29,-3.39 -5.08,-4.92 -1,-0.89 -1.35,-1.48 -0.28,-2 a 3.79,3.79 0 0 1 2.54,-0.55 77.45,77.45 0 0 1 7.09,3.37 c 1.08,0.56 0.92,1.32 -0.51,2.1 z"
         class="cls-1" />
      <path
         style="fill:#ffffff;fill-opacity:1"
         id="path422"
         d="m 3259,70.4 c -1.86,0 -3.73,0 -5.59,0 -0.35,0 -1,-0.7 -0.94,-0.9 0.21,-0.67 0.63,-1.76 1.06,-1.81 a 26.91,26.91 0 0 1 5.58,-0.05 c 3.13,0.32 6.43,-1 9.4,0.93 -2.51,3.72 -6.41,0.87 -9.51,1.83 z"
         class="cls-1" />
      <path
         style="fill:#ffffff;fill-opacity:1"
         id="path424"
         d="m 2330.17,104.42 c -1.9,-0.08 -3.85,0.49 -5.05,-1.37 -0.44,-0.68 5.32,-4.82 6.21,-4.23 1.8,1.19 4.95,3.43 4.67,4.13 -1,2.53 -3.87,1.14 -5.83,1.47 z"
         class="cls-1" />
      <path
         style="fill:#ffffff;fill-opacity:1"
         id="path426"
         d="m 5539.78,90.29 c 4.32,-0.15 7.63,-0.66 9.62,2.76 0.36,0.62 0.64,1.29 1,1.94 a 9.77,9.77 0 0 1 -2.38,0.88 c -2.8,0.27 -3.78,-3.85 -7.11,-2.91 -1.18,0.33 -3.86,1.2 -3.51,-1.79 0,-0.53 2.21,-0.82 2.38,-0.88 z"
         class="cls-1" />
      <path
         style="fill:#ffffff;fill-opacity:1"
         id="path428"
         d="m 2126.52,105.77 c -1,2 -3.37,0.86 -4.56,2 -2.14,2 -4.05,3.84 -6.67,0.83 -0.23,-0.26 -0.07,-0.9 0,-1.36 0.47,-4.62 4.06,-2.35 6.33,-2.73 1.68,-0.3 3.66,-0.58 4.9,1.26 z"
         class="cls-1" />
      <path
         style="fill:#ffffff;fill-opacity:1"
         id="path430"
         d="m 2676.52,84.57 v 5.67 c -2.82,-1.22 -8.84,3.22 -8.22,-3.51 0.42,-4.46 5.43,-1.27 8.22,-2.16 z"
         class="cls-1" />
      <path
         style="fill:#ffffff;fill-opacity:1"
         id="path432"
         d="m 1772,83.52 c 0,0.23 -0.77,1 -2.44,1.1 -2.91,0.21 -3.88,-4.07 -7.15,-3 a 6.22,6.22 0 0 1 -1,-1.7 c 2.86,-2.08 6.14,-0.87 9.22,-0.92 1.26,0 1.86,1.77 1.37,4.52 z"
         class="cls-1" />
      <path
         style="fill:#ffffff;fill-opacity:1"
         id="path434"
         d="m 2157.83,123.91 c -0.08,3.91 -2.8,3.22 -4.87,3.12 a 13.17,13.17 0 0 1 -3.58,-1.25 c 1.89,-1.72 3,-4.72 6.24,-4.31 1.38,0.17 2.5,1 2.21,2.44 z"
         class="cls-1" />
      <path
         style="fill:#ffffff;fill-opacity:1"
         id="path436"
         d="m 1132.11,70.18 a 18.41,18.41 0 0 1 4.23,0.8 c 0.55,0.25 0.76,1.46 1,2.28 0.39,1.71 -0.71,2.58 -2.12,2.77 -3.29,0.45 -4.35,-2.62 -6.28,-4.29 z"
         class="cls-1" />
      <path
         style="fill:#ffffff;fill-opacity:1"
         id="path438"
         d="m 445.34,126 a 8.69,8.69 0 0 1 -2.41,1 c -2.21,0.18 -4.48,-0.45 -6.2,1.82 -1.72,2.27 -2.29,-0.27 -2.28,-1 0,-1.19 0.69,-3.31 1.32,-3.4 a 42.36,42.36 0 0 1 8.27,-0.08 c 0.45,0.03 0.85,1.1 1.3,1.66 z"
         class="cls-1" />
      <path
         style="fill:#ffffff;fill-opacity:1"
         id="path440"
         d="m 3034.47,50.56 c 1.76,0 3.72,-0.43 4.79,1.47 0.12,0.22 -1.31,1.15 -1.81,1.89 -1.79,2.67 -3.12,1.67 -4.95,-0.14 -1,-1 -4.31,0 -4.11,-1.93 0.2,-1.93 3,-1.18 4.71,-1.3 0.45,-0.02 0.9,0.01 1.37,0.01 z"
         class="cls-1" />
      <path
         style="fill:#ffffff;fill-opacity:1"
         id="path442"
         d="m 2702.08,43.35 c -1.39,2.06 -3.33,1.48 -5.07,1.53 -1.94,0.05 -3.52,-0.23 -3.52,-2.84 0,-2.61 1.85,-3.35 3.49,-2.68 1.93,0.79 3.44,2.64 5.1,3.99 z"
         class="cls-1" />
      <path
         style="fill:#ffffff;fill-opacity:1"
         id="path444"
         d="m 3101.76,110.09 c -2.79,0.13 -3.47,-2.63 -5.24,-3.9 0,0 0.65,-1.64 1.09,-1.69 a 34.36,34.36 0 0 1 5.49,0 1.35,1.35 0 0 1 0.94,0.91 10.17,10.17 0 0 1 0,3.71 c -0.19,0.47 -1.5,0.65 -2.28,0.97 z"
         class="cls-1" />
      <path
         style="fill:#ffffff;fill-opacity:1"
         id="path446"
         d="m 1800.59,132.76 a 8.69,8.69 0 0 1 -2.8,-0.06 c -1,-0.35 -3.67,1.24 -2.62,-1.25 0.61,-1.44 1.93,-4.28 4.74,-3.56 1.22,0.31 2.18,1.66 3.4,2 1.22,0.34 2.68,0.21 2.41,1.94 -0.07,0.44 -1.48,0.79 -2.32,0.94 a 16.36,16.36 0 0 1 -2.81,-0.01 z"
         class="cls-1" />
      <path
         style="fill:#ffffff;fill-opacity:1"
         id="path448"
         d="m 2159.73,101.58 c 2.3,0 3.7,-0.06 5.09,0 0.36,0 1,0.69 0.94,0.89 -0.2,0.67 -0.58,1.73 -1,1.81 a 13.25,13.25 0 0 1 -4.17,0.05 c -2.65,-0.38 -7.72,0.93 -7.57,-0.89 0.42,-5.25 5.51,1.26 6.71,-1.86 z"
         class="cls-1" />
      <path
         style="fill:#ffffff;fill-opacity:1"
         id="path450"
         d="m 1839.94,85.63 c -0.22,1.59 -1.29,2 -2.65,1.77 -2,-0.31 -4.79,1.26 -5.47,-2.21 a 2.91,2.91 0 0 1 1.51,-3.4 c 1.4,-0.66 6.37,2.37 6.61,3.84 z"
         class="cls-1" />
      <path
         style="fill:#ffffff;fill-opacity:1"
         id="path452"
         d="m 1593.69,115.76 v 2.83 c 0.34,2.35 -1.84,3 -3,4.33 -2.18,2.54 -2.83,-0.55 -3.87,-1.36 -2.14,-1.65 -1.55,-2.48 1,-3.07 2.09,-0.49 3.93,-1.79 5.87,-2.73 z"
         class="cls-1" />
      <path
         style="fill:#ffffff;fill-opacity:1"
         id="path454"
         d="m 1993.93,166.78 c 0.72,0.43 2,0.8 2,1.31 0.14,1.19 0,3.34 -0.54,3.51 a 21.15,21.15 0 0 1 -6.38,0.8 c -3,0 -1,-1.47 -0.42,-2.25 a 7.83,7.83 0 0 1 5.34,-3.37 z"
         class="cls-1" />
      <path
         style="fill:#ffffff;fill-opacity:1"
         id="path456"
         d="m 2034.43,152.59 c -1.75,0.12 -3.83,0.42 -4.16,-2.13 -0.26,-2 0.23,-3.71 2.87,-3.53 0.93,0.06 1.87,-0.05 2.8,0 2.82,0.22 3.83,-4.41 7.18,-2.68 1.17,0.6 1.42,1.49 0.54,1.94 -3.35,1.73 -3.73,7.69 -9.23,6.4 z"
         class="cls-1" />
      <path
         style="fill:#ffffff;fill-opacity:1"
         id="path458"
         d="m 1370.46,56.22 c 1.78,0.34 4.59,-1.06 4.93,2.45 0.2,2.06 -0.72,2.9 -2.94,3.34 -3.16,0.62 -3.31,-2.18 -4.43,-3.49 -1.24,-1.46 -0.42,-2.21 2.44,-2.3 z"
         class="cls-1" />
    </g>
  </g>
</svg>
